<svg width="1200" height="775" viewBox="0 0 1200 775" fill="none" xmlns="http://www.w3.org/2000/svg">
<rect width="1200" height="775" fill="black"/>
<path d="M102.632 175.776C105.789 175.776 108.051 175.605 109.416 175.264C110.781 174.837 111.677 174.155 112.104 173.216C112.531 172.277 112.744 170.741 112.744 168.608V107.04C112.744 104.821 112.531 103.243 112.104 102.304C111.677 101.28 110.781 100.597 109.416 100.256C108.051 99.9147 105.789 99.744 102.632 99.744V95.52H165.224V116.896H161.896C160.872 112.544 159.763 109.259 158.568 107.04C157.373 104.736 155.581 103.072 153.192 102.048C150.888 101.024 147.56 100.512 143.208 100.512H133.224C131.261 100.512 129.939 100.811 129.256 101.408C128.659 102.005 128.36 103.157 128.36 104.864V133.024H141.032C144.019 133.024 146.237 132.725 147.688 132.128C149.224 131.445 150.291 130.379 150.888 128.928C151.571 127.477 152.211 125.216 152.808 122.144H156.008V149.28H152.808C152.211 146.208 151.571 143.989 150.888 142.624C150.291 141.259 149.224 140.277 147.688 139.68C146.237 138.997 144.019 138.656 141.032 138.656H128.36V166.56C128.36 169.12 128.659 170.955 129.256 172.064C129.939 173.173 131.304 173.941 133.352 174.368C135.485 174.795 138.984 175.008 143.848 175.008C148.712 175.008 152.509 174.411 155.24 173.216C158.056 172.021 160.232 170.144 161.768 167.584C163.304 165.024 164.755 161.312 166.12 156.448H169.32L167.784 180H102.632V175.776ZM240.185 169.376C240.185 171.168 240.356 172.533 240.697 173.472C241.124 174.325 241.934 174.923 243.129 175.264C244.324 175.605 246.158 175.776 248.633 175.776V180H218.041V175.776C220.345 175.776 221.966 175.691 222.905 175.52C223.844 175.264 224.484 174.752 224.825 173.984C225.252 173.216 225.465 171.893 225.465 170.016V139.296C225.465 135.285 224.484 132.213 222.521 130.08C220.644 127.947 217.956 126.88 214.457 126.88C209.764 126.88 205.326 128.885 201.145 132.896V170.016C201.145 171.893 201.316 173.216 201.657 173.984C202.084 174.752 202.766 175.264 203.705 175.52C204.644 175.691 206.18 175.776 208.313 175.776V180H177.977V175.776C180.537 175.776 182.372 175.605 183.481 175.264C184.59 174.923 185.316 174.325 185.657 173.472C185.998 172.619 186.169 171.253 186.169 169.376V132.384C186.169 130.08 185.913 128.544 185.401 127.776C184.889 126.923 183.95 126.496 182.585 126.496H178.745V122.144L197.177 119.2H200.761V127.648H200.889C204.473 124.576 208.185 122.315 212.025 120.864C215.865 119.328 219.534 118.56 223.033 118.56C228.409 118.56 232.59 120.224 235.577 123.552C238.649 126.795 240.185 131.403 240.185 137.376V169.376ZM310.16 150.688H271.76C272.016 158.027 273.424 163.616 275.984 167.456C278.544 171.296 282.853 173.216 288.912 173.216C293.093 173.216 296.549 172.277 299.28 170.4C302.011 168.437 304.187 165.536 305.808 161.696L309.776 164C307.643 169.205 304.656 173.387 300.816 176.544C296.976 179.701 291.216 181.28 283.536 181.28C265.189 181.28 256.016 170.912 256.016 150.176C256.016 139.68 258.32 131.787 262.928 126.496C267.621 121.205 274.448 118.56 283.408 118.56C292.795 118.56 299.579 121.291 303.76 126.752C308.027 132.213 310.16 139.637 310.16 149.024V150.688ZM294.544 145.568C294.544 137.973 293.861 132.427 292.496 128.928C291.131 125.429 288.272 123.68 283.92 123.68C279.739 123.68 276.667 125.429 274.704 128.928C272.827 132.427 271.803 137.973 271.632 145.568H294.544ZM359.261 118.432C362.93 118.432 365.618 119.499 367.325 121.632C369.117 123.68 370.013 126.197 370.013 129.184C370.013 132 369.288 134.219 367.837 135.84C366.386 137.376 364.338 138.144 361.693 138.144C359.389 138.144 357.554 137.547 356.189 136.352C354.909 135.157 354.269 133.493 354.269 131.36C354.269 130.08 354.44 129.056 354.781 128.288C355.208 127.52 355.72 126.795 356.317 126.112C357 125.429 357.341 124.96 357.341 124.704C357.341 124.363 357.213 124.064 356.957 123.808C356.701 123.552 356.274 123.424 355.677 123.424C354.141 123.424 352.434 124.405 350.557 126.368C348.68 128.331 347.058 130.976 345.693 134.304C344.328 137.547 343.645 141.045 343.645 144.8V169.376C343.645 171.253 343.858 172.619 344.285 173.472C344.797 174.325 345.778 174.923 347.229 175.264C348.68 175.605 351.026 175.776 354.269 175.776V180H320.477V175.776C323.037 175.776 324.872 175.605 325.981 175.264C327.09 174.837 327.816 174.197 328.157 173.344C328.498 172.491 328.669 171.168 328.669 169.376V132.384C328.669 130.08 328.413 128.544 327.901 127.776C327.389 126.923 326.45 126.496 325.085 126.496H321.245V122.144L339.677 119.2H343.261V130.336H343.517C347.272 122.4 352.52 118.432 359.261 118.432ZM430.669 118.56C433.485 118.56 435.832 119.285 437.709 120.736C439.586 122.187 440.525 124.32 440.525 127.136C440.525 129.099 440.056 130.677 439.117 131.872C438.178 133.067 436.77 133.664 434.893 133.664C433.186 133.664 431.864 133.237 430.925 132.384C430.072 131.531 429.645 130.507 429.645 129.312C429.645 128.459 429.73 127.776 429.901 127.264C430.072 126.667 430.157 126.197 430.157 125.856C430.157 125.515 429.986 125.173 429.645 124.832C429.304 124.491 428.621 124.32 427.597 124.32C425.634 124.32 423.97 125.259 422.605 127.136C425.08 130.464 426.317 134.389 426.317 138.912C426.317 145.739 423.885 150.773 419.021 154.016C414.157 157.173 408.098 158.752 400.845 158.752C397.858 158.752 395 158.496 392.269 157.984C390.306 159.52 389.325 160.885 389.325 162.08C389.325 163.104 390.008 164.043 391.373 164.896C392.738 165.664 394.829 166.048 397.645 166.048H409.293C416.717 166.048 422.434 167.669 426.445 170.912C430.456 174.069 432.461 178.635 432.461 184.608C432.461 192.032 429.517 197.621 423.629 201.376C417.741 205.216 410.274 207.136 401.229 207.136C393.208 207.136 386.637 205.685 381.517 202.784C376.482 199.883 373.965 195.659 373.965 190.112C373.965 187.125 374.818 184.651 376.525 182.688C378.317 180.811 381.304 179.232 385.485 177.952C382.84 177.013 380.749 175.691 379.213 173.984C377.762 172.277 377.037 170.357 377.037 168.224C377.037 163.872 380.365 159.947 387.021 156.448C379.085 153.205 375.117 147.445 375.117 139.168C375.117 132.171 377.72 127.051 382.925 123.808C388.13 120.48 394.274 118.816 401.357 118.816C404.941 118.816 408.312 119.285 411.469 120.224C414.712 121.077 417.485 122.443 419.789 124.32C422.52 120.48 426.146 118.56 430.669 118.56ZM401.101 153.632C404.77 153.632 407.544 152.309 409.421 149.664C411.298 146.933 412.237 143.136 412.237 138.272C412.237 133.579 411.512 130.037 410.061 127.648C408.61 125.259 405.794 124.064 401.613 124.064C397.346 124.064 394.445 125.301 392.909 127.776C391.373 130.251 390.605 133.963 390.605 138.912C390.605 143.776 391.33 147.445 392.781 149.92C394.232 152.395 397.005 153.632 401.101 153.632ZM420.429 189.472C420.429 185.888 418.978 183.243 416.077 181.536C413.176 179.915 408.696 179.104 402.637 179.104H394.317C389.709 180.896 387.405 184.139 387.405 188.832C387.405 192.757 388.984 195.957 392.141 198.432C395.298 200.907 399.266 202.144 404.045 202.144C408.568 202.144 412.408 201.035 415.565 198.816C418.808 196.597 420.429 193.483 420.429 189.472ZM507.396 119.84V124.064C505.348 124.064 503.812 124.235 502.788 124.576C501.764 124.832 500.911 125.429 500.228 126.368C499.545 127.307 498.777 128.885 497.924 131.104L479.236 178.464L477.188 183.712C475.14 189.173 473.348 193.397 471.812 196.384C470.276 199.456 468.271 201.973 465.796 203.936C463.407 205.899 460.42 206.88 456.836 206.88C453.252 206.88 450.308 205.941 448.004 204.064C445.7 202.187 444.548 199.84 444.548 197.024C444.548 194.72 445.316 192.715 446.852 191.008C448.388 189.301 450.265 188.448 452.484 188.448C454.361 188.448 455.897 189.088 457.092 190.368C458.372 191.648 459.012 193.269 459.012 195.232C459.012 196.683 458.671 197.877 457.988 198.816C457.305 199.84 456.964 200.523 456.964 200.864C456.964 201.547 457.732 201.888 459.268 201.888C461.657 201.888 463.62 200.992 465.156 199.2C466.692 197.408 468.228 194.293 469.764 189.856L472.58 182.048L450.82 129.312C450.137 127.605 449.497 126.411 448.9 125.728C448.388 125.045 447.62 124.619 446.596 124.448C445.657 124.192 444.121 124.064 441.988 124.064V119.84H472.58V124.064H468.356C466.735 124.064 465.924 124.747 465.924 126.112C465.924 126.624 466.052 127.264 466.308 128.032L478.98 163.104H479.236L491.652 127.904L491.908 126.368C491.908 124.832 491.055 124.064 489.348 124.064H484.356V119.84H507.396ZM544.132 175.776C547.289 175.776 549.551 175.605 550.916 175.264C552.281 174.837 553.177 174.155 553.604 173.216C554.031 172.277 554.244 170.741 554.244 168.608V107.04C554.244 104.821 554.031 103.243 553.604 102.304C553.177 101.365 552.281 100.725 550.916 100.384C549.551 99.9573 547.289 99.744 544.132 99.744V95.52H580.484V99.744C577.071 99.744 574.639 99.9147 573.188 100.256C571.823 100.597 570.927 101.28 570.5 102.304C570.073 103.243 569.86 104.821 569.86 107.04V165.408C569.86 168.48 570.244 170.699 571.012 172.064C571.865 173.344 573.145 174.155 574.852 174.496C576.559 174.752 579.503 174.88 583.684 174.88C588.548 174.88 592.303 174.325 594.948 173.216C597.679 172.107 599.812 170.315 601.348 167.84C602.884 165.28 604.292 161.568 605.572 156.704H608.9L607.492 180H544.132V175.776ZM650.084 181.28C639.844 181.28 632.292 178.763 627.428 173.728C622.649 168.693 620.26 160.8 620.26 150.048C620.26 139.296 622.692 131.36 627.556 126.24C632.42 121.035 640.015 118.432 650.34 118.432C660.495 118.432 667.961 120.992 672.74 126.112C677.519 131.147 679.908 139.04 679.908 149.792C679.908 160.629 677.476 168.608 672.612 173.728C667.833 178.763 660.324 181.28 650.084 181.28ZM650.084 176.16C655.033 176.16 658.617 174.069 660.836 169.888C663.055 165.707 664.164 159.264 664.164 150.56C664.164 141.259 663.012 134.432 660.708 130.08C658.404 125.728 654.82 123.552 649.956 123.552C645.092 123.552 641.508 125.685 639.204 129.952C636.985 134.133 635.876 140.789 635.876 149.92C635.876 159.051 636.985 165.707 639.204 169.888C641.508 174.069 645.135 176.16 650.084 176.16ZM749.143 177.312C747.266 178.421 745.218 179.36 742.999 180.128C740.866 180.896 738.178 181.28 734.935 181.28C731.436 181.28 728.919 180.725 727.383 179.616C725.932 178.507 725.207 176.203 725.207 172.704C722.306 175.264 719.319 177.355 716.247 178.976C713.175 180.512 709.762 181.28 706.007 181.28C701.399 181.28 697.602 180.171 694.615 177.952C691.628 175.733 690.135 172.576 690.135 168.48C690.135 162.677 693.207 157.6 699.351 153.248C705.58 148.811 714.199 145.611 725.207 143.648V135.84C725.122 132.256 724.183 129.568 722.391 127.776C720.684 125.984 717.655 125.088 713.303 125.088C710.914 125.088 708.823 125.472 707.031 126.24C705.324 126.923 704.471 127.648 704.471 128.416C704.471 129.184 704.983 130.08 706.007 131.104C706.69 131.872 707.202 132.555 707.543 133.152C707.884 133.749 708.055 134.56 708.055 135.584C708.055 137.717 707.415 139.424 706.135 140.704C704.855 141.899 703.148 142.496 701.015 142.496C698.796 142.496 697.004 141.813 695.639 140.448C694.274 139.083 693.591 137.291 693.591 135.072C693.591 132.256 694.615 129.611 696.663 127.136C698.796 124.661 701.826 122.699 705.751 121.248C709.762 119.712 714.455 118.944 719.831 118.944C726.658 118.944 731.65 120.352 734.807 123.168C738.05 125.984 739.671 130.848 739.671 137.76V166.176C739.671 169.504 740.012 171.808 740.695 173.088C741.463 174.283 742.658 174.88 744.279 174.88C745.132 174.88 745.9 174.752 746.583 174.496C747.266 174.155 747.692 173.941 747.863 173.856L749.143 177.312ZM704.599 164C704.599 169.376 707.756 172.064 714.071 172.064C717.57 172.064 721.282 170.485 725.207 167.328V148.64C718.124 150.176 712.919 152.181 709.591 154.656C706.263 157.045 704.599 160.16 704.599 164ZM821.171 175.776V180H799.539L798.771 174.496C796.04 176.459 792.926 178.123 789.427 179.488C785.928 180.768 782.344 181.408 778.675 181.408C771.336 181.408 765.662 178.763 761.651 173.472C757.64 168.181 755.635 160.757 755.635 151.2C755.635 140.277 758.238 132.128 763.443 126.752C768.734 121.291 776.2 118.56 785.843 118.56C788.318 118.56 790.408 118.731 792.115 119.072C793.822 119.413 795.827 119.925 798.131 120.608H798.259V104.864C798.259 102.56 798.003 100.981 797.491 100.128C797.064 99.2747 796.083 98.848 794.547 98.848H790.707V94.752L809.267 91.68H812.979V169.376C812.979 171.936 813.491 173.643 814.515 174.496C815.539 175.349 817.288 175.776 819.763 175.776H821.171ZM771.379 148.256C771.379 164.811 776.499 173.088 786.739 173.088C788.702 173.088 790.408 172.747 791.859 172.064C793.395 171.381 795.528 170.059 798.259 168.096V127.008C795.187 124.789 791.56 123.68 787.379 123.68C782.088 123.68 778.078 125.685 775.347 129.696C772.702 133.621 771.379 139.808 771.379 148.256ZM114.536 340.776C118.632 340.776 121.448 340.648 122.984 340.392C124.605 340.051 125.629 339.453 126.056 338.6C126.483 337.747 126.696 336.125 126.696 333.736V265.512H120.552C116.371 265.512 113.171 266.024 110.952 267.048C108.819 268.072 107.197 269.693 106.088 271.912C105.064 274.131 103.955 277.544 102.76 282.152H99.56V260.52H169.576V282.152H166.376C165.181 277.459 164.029 274.045 162.92 271.912C161.896 269.693 160.317 268.072 158.184 267.048C156.051 266.024 152.893 265.512 148.712 265.512H142.312V333.736C142.312 335.955 142.611 337.533 143.208 338.472C143.805 339.411 144.872 340.051 146.408 340.392C148.029 340.648 150.76 340.776 154.6 340.776V345H114.536V340.776ZM231.896 284.84V289.064C229.848 289.064 228.312 289.235 227.288 289.576C226.264 289.832 225.411 290.429 224.728 291.368C224.045 292.307 223.277 293.885 222.424 296.104L203.736 343.464L201.688 348.712C199.64 354.173 197.848 358.397 196.312 361.384C194.776 364.456 192.771 366.973 190.296 368.936C187.907 370.899 184.92 371.88 181.336 371.88C177.752 371.88 174.808 370.941 172.504 369.064C170.2 367.187 169.048 364.84 169.048 362.024C169.048 359.72 169.816 357.715 171.352 356.008C172.888 354.301 174.765 353.448 176.984 353.448C178.861 353.448 180.397 354.088 181.592 355.368C182.872 356.648 183.512 358.269 183.512 360.232C183.512 361.683 183.171 362.877 182.488 363.816C181.805 364.84 181.464 365.523 181.464 365.864C181.464 366.547 182.232 366.888 183.768 366.888C186.157 366.888 188.12 365.992 189.656 364.2C191.192 362.408 192.728 359.293 194.264 354.856L197.08 347.048L175.32 294.312C174.637 292.605 173.997 291.411 173.4 290.728C172.888 290.045 172.12 289.619 171.096 289.448C170.157 289.192 168.621 289.064 166.488 289.064V284.84H197.08V289.064H192.856C191.235 289.064 190.424 289.747 190.424 291.112C190.424 291.624 190.552 292.264 190.808 293.032L203.48 328.104H203.736L216.152 292.904L216.408 291.368C216.408 289.832 215.555 289.064 213.848 289.064H208.856V284.84H231.896ZM279.333 283.56C286.672 283.56 292.346 286.077 296.357 291.112C300.453 296.061 302.501 303.357 302.501 313C302.501 323.923 299.898 332.243 294.693 337.96C289.488 343.592 282.021 346.408 272.293 346.408C270.16 346.408 268.154 346.237 266.277 345.896C264.4 345.555 262.266 344.957 259.877 344.104V360.104C259.877 361.896 260.09 363.219 260.517 364.072C261.029 364.925 261.968 365.523 263.333 365.864C264.784 366.205 267.045 366.376 270.117 366.376V370.6H236.965V366.376C239.525 366.376 241.36 366.205 242.469 365.864C243.578 365.523 244.304 364.925 244.645 364.072C244.986 363.304 245.157 361.981 245.157 360.104V295.848C245.157 293.971 244.816 292.776 244.133 292.264C243.536 291.667 242.085 291.368 239.781 291.368H237.477V287.016L255.909 284.2H259.493V291.368H259.621C261.584 288.979 264.357 287.101 267.941 285.736C271.61 284.285 275.408 283.56 279.333 283.56ZM270.629 341.288C275.92 341.288 279.93 339.155 282.661 334.888C285.392 330.536 286.757 324.349 286.757 316.328C286.757 308.392 285.434 302.333 282.789 298.152C280.229 293.971 276.517 291.88 271.653 291.88C269.178 291.88 267.002 292.349 265.125 293.288C263.333 294.141 261.584 295.208 259.877 296.488V337.192C262.864 339.923 266.448 341.288 270.629 341.288ZM368.41 315.688H330.01C330.266 323.027 331.674 328.616 334.234 332.456C336.794 336.296 341.103 338.216 347.162 338.216C351.343 338.216 354.799 337.277 357.53 335.4C360.261 333.437 362.437 330.536 364.058 326.696L368.026 329C365.893 334.205 362.906 338.387 359.066 341.544C355.226 344.701 349.466 346.28 341.786 346.28C323.439 346.28 314.266 335.912 314.266 315.176C314.266 304.68 316.57 296.787 321.178 291.496C325.871 286.205 332.698 283.56 341.658 283.56C351.045 283.56 357.829 286.291 362.01 291.752C366.277 297.213 368.41 304.637 368.41 314.024V315.688ZM352.794 310.568C352.794 302.973 352.111 297.427 350.746 293.928C349.381 290.429 346.522 288.68 342.17 288.68C337.989 288.68 334.917 290.429 332.954 293.928C331.077 297.427 330.053 302.973 329.882 310.568H352.794ZM409.882 340.776C413.039 340.776 415.301 340.605 416.666 340.264C418.031 339.837 418.927 339.155 419.354 338.216C419.781 337.277 419.994 335.741 419.994 333.608V272.04C419.994 269.821 419.781 268.243 419.354 267.304C418.927 266.365 418.031 265.725 416.666 265.384C415.301 264.957 413.039 264.744 409.882 264.744V260.52H446.618C458.991 260.52 467.269 262.995 471.45 267.944C475.717 272.893 477.85 278.525 477.85 284.84C477.85 291.837 475.418 298.024 470.554 303.4C465.69 308.776 456.517 311.464 443.034 311.464H435.61V333.608C435.61 335.827 435.866 337.405 436.378 338.344C436.89 339.283 437.957 339.923 439.578 340.264C441.199 340.605 443.887 340.776 447.642 340.776V345H409.882V340.776ZM443.29 306.344C448.837 306.344 453.189 304.509 456.346 300.84C459.589 297.085 461.21 291.88 461.21 285.224C461.21 278.909 459.674 274.045 456.602 270.632C453.53 267.219 448.922 265.512 442.778 265.512C439.877 265.512 437.957 265.896 437.018 266.664C436.079 267.347 435.61 268.456 435.61 269.992V306.344H443.29ZM519.886 283.432C523.555 283.432 526.243 284.499 527.95 286.632C529.742 288.68 530.638 291.197 530.638 294.184C530.638 297 529.913 299.219 528.462 300.84C527.011 302.376 524.963 303.144 522.318 303.144C520.014 303.144 518.179 302.547 516.814 301.352C515.534 300.157 514.894 298.493 514.894 296.36C514.894 295.08 515.065 294.056 515.406 293.288C515.833 292.52 516.345 291.795 516.942 291.112C517.625 290.429 517.966 289.96 517.966 289.704C517.966 289.363 517.838 289.064 517.582 288.808C517.326 288.552 516.899 288.424 516.302 288.424C514.766 288.424 513.059 289.405 511.182 291.368C509.305 293.331 507.683 295.976 506.318 299.304C504.953 302.547 504.27 306.045 504.27 309.8V334.376C504.27 336.253 504.483 337.619 504.91 338.472C505.422 339.325 506.403 339.923 507.854 340.264C509.305 340.605 511.651 340.776 514.894 340.776V345H481.102V340.776C483.662 340.776 485.497 340.605 486.606 340.264C487.715 339.837 488.441 339.197 488.782 338.344C489.123 337.491 489.294 336.168 489.294 334.376V297.384C489.294 295.08 489.038 293.544 488.526 292.776C488.014 291.923 487.075 291.496 485.71 291.496H481.87V287.144L500.302 284.2H503.886V295.336H504.142C507.897 287.4 513.145 283.432 519.886 283.432ZM589.66 315.688H551.26C551.516 323.027 552.924 328.616 555.484 332.456C558.044 336.296 562.353 338.216 568.412 338.216C572.593 338.216 576.049 337.277 578.78 335.4C581.511 333.437 583.687 330.536 585.308 326.696L589.276 329C587.143 334.205 584.156 338.387 580.316 341.544C576.476 344.701 570.716 346.28 563.036 346.28C544.689 346.28 535.516 335.912 535.516 315.176C535.516 304.68 537.82 296.787 542.428 291.496C547.121 286.205 553.948 283.56 562.908 283.56C572.295 283.56 579.079 286.291 583.26 291.752C587.527 297.213 589.66 304.637 589.66 314.024V315.688ZM574.044 310.568C574.044 302.973 573.361 297.427 571.996 293.928C570.631 290.429 567.772 288.68 563.42 288.68C559.239 288.68 556.167 290.429 554.204 293.928C552.327 297.427 551.303 302.973 551.132 310.568H574.044ZM666.921 340.776V345H645.289L644.521 339.496C641.79 341.459 638.676 343.123 635.177 344.488C631.678 345.768 628.094 346.408 624.425 346.408C617.086 346.408 611.412 343.763 607.401 338.472C603.39 333.181 601.385 325.757 601.385 316.2C601.385 305.277 603.988 297.128 609.193 291.752C614.484 286.291 621.95 283.56 631.593 283.56C634.068 283.56 636.158 283.731 637.865 284.072C639.572 284.413 641.577 284.925 643.881 285.608H644.009V269.864C644.009 267.56 643.753 265.981 643.241 265.128C642.814 264.275 641.833 263.848 640.297 263.848H636.457V259.752L655.017 256.68H658.729V334.376C658.729 336.936 659.241 338.643 660.265 339.496C661.289 340.349 663.038 340.776 665.513 340.776H666.921ZM617.129 313.256C617.129 329.811 622.249 338.088 632.489 338.088C634.452 338.088 636.158 337.747 637.609 337.064C639.145 336.381 641.278 335.059 644.009 333.096V292.008C640.937 289.789 637.31 288.68 633.129 288.68C627.838 288.68 623.828 290.685 621.097 294.696C618.452 298.621 617.129 304.808 617.129 313.256ZM687.944 275.624C685.469 275.624 683.464 274.856 681.928 273.32C680.392 271.699 679.624 269.693 679.624 267.304C679.624 264.915 680.392 262.909 681.928 261.288C683.464 259.667 685.469 258.856 687.944 258.856C690.504 258.856 692.552 259.667 694.088 261.288C695.624 262.909 696.392 264.915 696.392 267.304C696.392 269.693 695.581 271.699 693.96 273.32C692.339 274.856 690.333 275.624 687.944 275.624ZM672.712 340.776C675.272 340.776 677.107 340.605 678.216 340.264C679.325 339.837 680.051 339.197 680.392 338.344C680.733 337.491 680.904 336.168 680.904 334.376V297.384C680.904 294.995 680.648 293.416 680.136 292.648C679.709 291.88 678.771 291.496 677.32 291.496H673.48V287.144L692.296 284.2H695.88V334.376C695.88 336.253 696.051 337.619 696.392 338.472C696.733 339.325 697.459 339.923 698.568 340.264C699.677 340.605 701.512 340.776 704.072 340.776V345H672.712V340.776ZM742.048 346.28C733.003 346.28 726.048 343.763 721.184 338.728C716.405 333.608 714.016 325.885 714.016 315.56C714.016 304.893 716.533 296.915 721.568 291.624C726.603 286.248 733.856 283.56 743.328 283.56C748.619 283.56 753.013 284.328 756.512 285.864C760.011 287.4 762.571 289.405 764.192 291.88C765.813 294.269 766.624 296.872 766.624 299.688C766.624 302.248 765.941 304.253 764.576 305.704C763.296 307.155 761.504 307.88 759.2 307.88C756.896 307.88 755.104 307.197 753.824 305.832C752.629 304.467 752.032 302.717 752.032 300.584C752.032 299.304 752.203 298.237 752.544 297.384C752.971 296.531 753.227 296.019 753.312 295.848C753.909 294.824 754.208 293.971 754.208 293.288C754.208 291.923 753.44 290.813 751.904 289.96C750.368 289.107 748.149 288.68 745.248 288.68C740.213 288.68 736.373 290.387 733.728 293.8C731.083 297.213 729.76 303.4 729.76 312.36C729.76 321.149 731.168 327.677 733.984 331.944C736.8 336.211 741.152 338.344 747.04 338.344C751.904 338.344 755.531 337.235 757.92 335.016C760.395 332.797 762.485 329.981 764.192 326.568L767.392 328.488C765.429 334.291 762.485 338.728 758.56 341.8C754.72 344.787 749.216 346.28 742.048 346.28ZM794.93 346.408C790.237 346.408 786.567 345.128 783.922 342.568C781.277 339.923 779.954 336.211 779.954 331.432V289.96H772.402V285.736C776.839 284.371 780.381 282.024 783.026 278.696C785.671 275.283 787.762 270.632 789.298 264.744H794.674V284.84H808.37V289.96H794.674V326.952C794.674 330.792 795.399 333.651 796.85 335.528C798.301 337.405 800.562 338.344 803.634 338.344C805.938 338.344 808.071 337.917 810.034 337.064L811.442 340.264C808.285 342.312 805.554 343.848 803.25 344.872C801.031 345.896 798.258 346.408 794.93 346.408ZM830.694 275.624C828.219 275.624 826.214 274.856 824.678 273.32C823.142 271.699 822.374 269.693 822.374 267.304C822.374 264.915 823.142 262.909 824.678 261.288C826.214 259.667 828.219 258.856 830.694 258.856C833.254 258.856 835.302 259.667 836.838 261.288C838.374 262.909 839.142 264.915 839.142 267.304C839.142 269.693 838.331 271.699 836.71 273.32C835.089 274.856 833.083 275.624 830.694 275.624ZM815.462 340.776C818.022 340.776 819.857 340.605 820.966 340.264C822.075 339.837 822.801 339.197 823.142 338.344C823.483 337.491 823.654 336.168 823.654 334.376V297.384C823.654 294.995 823.398 293.416 822.886 292.648C822.459 291.88 821.521 291.496 820.07 291.496H816.23V287.144L835.046 284.2H838.63V334.376C838.63 336.253 838.801 337.619 839.142 338.472C839.483 339.325 840.209 339.923 841.318 340.264C842.427 340.605 844.262 340.776 846.822 340.776V345H815.462V340.776ZM886.334 346.28C876.094 346.28 868.542 343.763 863.678 338.728C858.899 333.693 856.51 325.8 856.51 315.048C856.51 304.296 858.942 296.36 863.806 291.24C868.67 286.035 876.265 283.432 886.59 283.432C896.745 283.432 904.211 285.992 908.99 291.112C913.769 296.147 916.158 304.04 916.158 314.792C916.158 325.629 913.726 333.608 908.862 338.728C904.083 343.763 896.574 346.28 886.334 346.28ZM886.334 341.16C891.283 341.16 894.867 339.069 897.086 334.888C899.305 330.707 900.414 324.264 900.414 315.56C900.414 306.259 899.262 299.432 896.958 295.08C894.654 290.728 891.07 288.552 886.206 288.552C881.342 288.552 877.758 290.685 875.454 294.952C873.235 299.133 872.126 305.789 872.126 314.92C872.126 324.051 873.235 330.707 875.454 334.888C877.758 339.069 881.385 341.16 886.334 341.16ZM988.435 334.376C988.435 336.168 988.606 337.533 988.947 338.472C989.374 339.325 990.184 339.923 991.379 340.264C992.574 340.605 994.408 340.776 996.883 340.776V345H966.291V340.776C968.595 340.776 970.216 340.691 971.155 340.52C972.094 340.264 972.734 339.752 973.075 338.984C973.502 338.216 973.715 336.893 973.715 335.016V304.296C973.715 300.285 972.734 297.213 970.771 295.08C968.894 292.947 966.206 291.88 962.707 291.88C958.014 291.88 953.576 293.885 949.395 297.896V335.016C949.395 336.893 949.566 338.216 949.907 338.984C950.334 339.752 951.016 340.264 951.955 340.52C952.894 340.691 954.43 340.776 956.563 340.776V345H926.227V340.776C928.787 340.776 930.622 340.605 931.731 340.264C932.84 339.923 933.566 339.325 933.907 338.472C934.248 337.619 934.419 336.253 934.419 334.376V297.384C934.419 295.08 934.163 293.544 933.651 292.776C933.139 291.923 932.2 291.496 930.835 291.496H926.995V287.144L945.427 284.2H949.011V292.648H949.139C952.723 289.576 956.435 287.315 960.275 285.864C964.115 284.328 967.784 283.56 971.283 283.56C976.659 283.56 980.84 285.224 983.827 288.552C986.899 291.795 988.435 296.403 988.435 302.376V334.376ZM102.632 505.776C105.789 505.776 108.051 505.605 109.416 505.264C110.781 504.837 111.677 504.155 112.104 503.216C112.531 502.277 112.744 500.741 112.744 498.608V437.04C112.744 434.821 112.531 433.243 112.104 432.304C111.677 431.365 110.781 430.725 109.416 430.384C108.051 429.957 105.789 429.744 102.632 429.744V425.52H164.84V446.768H161.64C160.531 442.416 159.336 439.131 158.056 436.912C156.861 434.693 155.069 433.072 152.68 432.048C150.376 431.024 147.048 430.512 142.696 430.512H133.224C131.261 430.512 129.939 430.811 129.256 431.408C128.659 432.005 128.36 433.157 128.36 434.864V465.072H142.44C145.512 465.072 147.773 464.773 149.224 464.176C150.76 463.493 151.869 462.427 152.552 460.976C153.235 459.525 153.875 457.264 154.472 454.192H157.544V481.456H154.472C153.875 478.384 153.235 476.165 152.552 474.8C151.869 473.349 150.76 472.325 149.224 471.728C147.773 471.045 145.512 470.704 142.44 470.704H128.36V498.48C128.36 500.699 128.616 502.277 129.128 503.216C129.64 504.155 130.707 504.837 132.328 505.264C133.949 505.605 136.637 505.776 140.392 505.776V510H102.632V505.776ZM199.084 511.28C188.844 511.28 181.292 508.763 176.428 503.728C171.649 498.693 169.26 490.8 169.26 480.048C169.26 469.296 171.692 461.36 176.556 456.24C181.42 451.035 189.015 448.432 199.34 448.432C209.495 448.432 216.961 450.992 221.74 456.112C226.519 461.147 228.908 469.04 228.908 479.792C228.908 490.629 226.476 498.608 221.612 503.728C216.833 508.763 209.324 511.28 199.084 511.28ZM199.084 506.16C204.033 506.16 207.617 504.069 209.836 499.888C212.055 495.707 213.164 489.264 213.164 480.56C213.164 471.259 212.012 464.432 209.708 460.08C207.404 455.728 203.82 453.552 198.956 453.552C194.092 453.552 190.508 455.685 188.204 459.952C185.985 464.133 184.876 470.789 184.876 479.92C184.876 489.051 185.985 495.707 188.204 499.888C190.508 504.069 194.135 506.16 199.084 506.16ZM277.761 448.432C281.43 448.432 284.118 449.499 285.825 451.632C287.617 453.68 288.513 456.197 288.513 459.184C288.513 462 287.788 464.219 286.337 465.84C284.886 467.376 282.838 468.144 280.193 468.144C277.889 468.144 276.054 467.547 274.689 466.352C273.409 465.157 272.769 463.493 272.769 461.36C272.769 460.08 272.94 459.056 273.281 458.288C273.708 457.52 274.22 456.795 274.817 456.112C275.5 455.429 275.841 454.96 275.841 454.704C275.841 454.363 275.713 454.064 275.457 453.808C275.201 453.552 274.774 453.424 274.177 453.424C272.641 453.424 270.934 454.405 269.057 456.368C267.18 458.331 265.558 460.976 264.193 464.304C262.828 467.547 262.145 471.045 262.145 474.8V499.376C262.145 501.253 262.358 502.619 262.785 503.472C263.297 504.325 264.278 504.923 265.729 505.264C267.18 505.605 269.526 505.776 272.769 505.776V510H238.977V505.776C241.537 505.776 243.372 505.605 244.481 505.264C245.59 504.837 246.316 504.197 246.657 503.344C246.998 502.491 247.169 501.168 247.169 499.376V462.384C247.169 460.08 246.913 458.544 246.401 457.776C245.889 456.923 244.95 456.496 243.585 456.496H239.745V452.144L258.177 449.2H261.761V460.336H262.017C265.772 452.4 271.02 448.432 277.761 448.432ZM324.87 483.248H328.07C332.678 498.608 340.486 506.288 351.494 506.288C356.102 506.288 359.771 505.051 362.502 502.576C365.233 500.016 366.598 496.475 366.598 491.952C366.598 488.027 365.403 484.741 363.014 482.096C360.625 479.365 356.955 476.976 352.006 474.928L349.19 473.776C341.851 470.789 336.134 467.419 332.038 463.664C328.027 459.909 326.022 454.661 326.022 447.92C326.022 443.397 327.046 439.344 329.094 435.76C331.227 432.091 334.299 429.232 338.31 427.184C342.321 425.051 347.142 423.984 352.774 423.984C355.59 423.984 357.979 424.197 359.942 424.624C361.905 425.051 363.953 425.648 366.086 426.416C367.707 427.099 368.987 427.44 369.926 427.44C370.523 427.44 370.993 427.269 371.334 426.928C371.675 426.587 371.974 425.947 372.23 425.008H374.79L376.07 448.176H372.998C371.718 441.947 369.499 437.211 366.342 433.968C363.185 430.725 359.217 429.104 354.438 429.104C350.171 429.104 346.715 430.341 344.07 432.816C341.425 435.205 340.102 438.32 340.102 442.16C340.102 445.061 340.913 447.579 342.534 449.712C344.155 451.76 346.118 453.467 348.422 454.832C350.726 456.112 353.627 457.477 357.126 458.928L360.838 460.464C367.409 463.195 372.486 466.48 376.07 470.32C379.739 474.16 381.574 479.323 381.574 485.808C381.574 493.061 379.142 499.163 374.278 504.112C369.499 509.061 361.905 511.536 351.494 511.536C347.995 511.536 345.137 511.28 342.918 510.768C340.699 510.256 338.566 509.573 336.518 508.72C336.262 508.635 335.75 508.464 334.982 508.208C334.214 507.867 333.489 507.696 332.806 507.696C331.953 507.696 331.185 507.952 330.502 508.464C329.905 508.891 329.521 509.403 329.35 510H326.662L324.87 483.248ZM410.43 511.408C405.737 511.408 402.067 510.128 399.422 507.568C396.777 504.923 395.454 501.211 395.454 496.432V454.96H387.902V450.736C392.339 449.371 395.881 447.024 398.526 443.696C401.171 440.283 403.262 435.632 404.798 429.744H410.174V449.84H423.87V454.96H410.174V491.952C410.174 495.792 410.899 498.651 412.35 500.528C413.801 502.405 416.062 503.344 419.134 503.344C421.438 503.344 423.571 502.917 425.534 502.064L426.942 505.264C423.785 507.312 421.054 508.848 418.75 509.872C416.531 510.896 413.758 511.408 410.43 511.408ZM487.41 480.688H449.01C449.266 488.027 450.674 493.616 453.234 497.456C455.794 501.296 460.103 503.216 466.162 503.216C470.343 503.216 473.799 502.277 476.53 500.4C479.261 498.437 481.437 495.536 483.058 491.696L487.026 494C484.893 499.205 481.906 503.387 478.066 506.544C474.226 509.701 468.466 511.28 460.786 511.28C442.439 511.28 433.266 500.912 433.266 480.176C433.266 469.68 435.57 461.787 440.178 456.496C444.871 451.205 451.698 448.56 460.658 448.56C470.045 448.56 476.829 451.291 481.01 456.752C485.277 462.213 487.41 469.637 487.41 479.024V480.688ZM471.794 475.568C471.794 467.973 471.111 462.427 469.746 458.928C468.381 455.429 465.522 453.68 461.17 453.68C456.989 453.68 453.917 455.429 451.954 458.928C450.077 462.427 449.053 467.973 448.882 475.568H471.794ZM553.535 480.688H515.135C515.391 488.027 516.799 493.616 519.359 497.456C521.919 501.296 526.228 503.216 532.287 503.216C536.468 503.216 539.924 502.277 542.655 500.4C545.386 498.437 547.562 495.536 549.183 491.696L553.151 494C551.018 499.205 548.031 503.387 544.191 506.544C540.351 509.701 534.591 511.28 526.911 511.28C508.564 511.28 499.391 500.912 499.391 480.176C499.391 469.68 501.695 461.787 506.303 456.496C510.996 451.205 517.823 448.56 526.783 448.56C536.17 448.56 542.954 451.291 547.135 456.752C551.402 462.213 553.535 469.637 553.535 479.024V480.688ZM537.919 475.568C537.919 467.973 537.236 462.427 535.871 458.928C534.506 455.429 531.647 453.68 527.295 453.68C523.114 453.68 520.042 455.429 518.079 458.928C516.202 462.427 515.178 467.973 515.007 475.568H537.919ZM562.7 505.776C565.26 505.776 567.095 505.605 568.204 505.264C569.399 504.837 570.167 504.197 570.508 503.344C570.849 502.491 571.02 501.168 571.02 499.376V434.992C571.02 432.603 570.764 431.024 570.252 430.256C569.74 429.403 568.759 428.976 567.308 428.976H563.468V424.624L582.284 421.68H585.868V499.376C585.868 501.168 586.039 502.533 586.38 503.472C586.807 504.325 587.575 504.923 588.684 505.264C589.879 505.605 591.671 505.776 594.06 505.776V510H562.7V505.776ZM102.632 670.776C105.789 670.776 108.051 670.605 109.416 670.264C110.781 669.837 111.677 669.155 112.104 668.216C112.531 667.277 112.744 665.741 112.744 663.608V602.168C112.744 599.949 112.531 598.371 112.104 597.432C111.677 596.408 110.781 595.725 109.416 595.384C108.051 594.957 105.789 594.744 102.632 594.744V590.52H138.344V594.744C135.187 594.744 132.925 594.957 131.56 595.384C130.195 595.725 129.299 596.408 128.872 597.432C128.531 598.371 128.36 599.949 128.36 602.168V663.608C128.36 665.741 128.573 667.32 129 668.344C129.427 669.283 130.323 669.923 131.688 670.264C133.053 670.605 135.272 670.776 138.344 670.776V675H102.632V670.776ZM209.31 664.376C209.31 666.168 209.481 667.533 209.822 668.472C210.249 669.325 211.059 669.923 212.254 670.264C213.449 670.605 215.283 670.776 217.758 670.776V675H187.166V670.776C189.47 670.776 191.091 670.691 192.03 670.52C192.969 670.264 193.609 669.752 193.95 668.984C194.377 668.216 194.59 666.893 194.59 665.016V634.296C194.59 630.285 193.609 627.213 191.646 625.08C189.769 622.947 187.081 621.88 183.582 621.88C178.889 621.88 174.451 623.885 170.27 627.896V665.016C170.27 666.893 170.441 668.216 170.782 668.984C171.209 669.752 171.891 670.264 172.83 670.52C173.769 670.691 175.305 670.776 177.438 670.776V675H147.102V670.776C149.662 670.776 151.497 670.605 152.606 670.264C153.715 669.923 154.441 669.325 154.782 668.472C155.123 667.619 155.294 666.253 155.294 664.376V627.384C155.294 625.08 155.038 623.544 154.526 622.776C154.014 621.923 153.075 621.496 151.71 621.496H147.87V617.144L166.302 614.2H169.886V622.648H170.014C173.598 619.576 177.31 617.315 181.15 615.864C184.99 614.328 188.659 613.56 192.158 613.56C197.534 613.56 201.715 615.224 204.702 618.552C207.774 621.795 209.31 626.403 209.31 632.376V664.376ZM290.421 670.776V675H268.789L268.021 669.496C265.29 671.459 262.176 673.123 258.677 674.488C255.178 675.768 251.594 676.408 247.925 676.408C240.586 676.408 234.912 673.763 230.901 668.472C226.89 663.181 224.885 655.757 224.885 646.2C224.885 635.277 227.488 627.128 232.693 621.752C237.984 616.291 245.45 613.56 255.093 613.56C257.568 613.56 259.658 613.731 261.365 614.072C263.072 614.413 265.077 614.925 267.381 615.608H267.509V599.864C267.509 597.56 267.253 595.981 266.741 595.128C266.314 594.275 265.333 593.848 263.797 593.848H259.957V589.752L278.517 586.68H282.229V664.376C282.229 666.936 282.741 668.643 283.765 669.496C284.789 670.349 286.538 670.776 289.013 670.776H290.421ZM240.629 643.256C240.629 659.811 245.749 668.088 255.989 668.088C257.952 668.088 259.658 667.747 261.109 667.064C262.645 666.381 264.778 665.059 267.509 663.096V622.008C264.437 619.789 260.81 618.68 256.629 618.68C251.338 618.68 247.328 620.685 244.597 624.696C241.952 628.621 240.629 634.808 240.629 643.256ZM357.14 664.376C357.14 666.168 357.311 667.533 357.652 668.472C358.079 669.325 358.847 669.923 359.956 670.264C361.151 670.605 362.943 670.776 365.332 670.776V675H342.676V666.168H342.548C334.612 672.995 327.145 676.408 320.148 676.408C314.687 676.408 310.505 674.872 307.604 671.8C304.788 668.728 303.38 664.248 303.38 658.36V626.616C303.38 624.227 303.124 622.648 302.612 621.88C302.1 621.112 301.076 620.728 299.54 620.728H295.7V616.504L314.388 614.2H318.1V654.648C318.1 658.915 319.039 662.243 320.916 664.632C322.879 666.936 325.652 668.088 329.236 668.088C331.455 668.088 333.716 667.405 336.02 666.04C338.409 664.589 340.5 662.925 342.292 661.048V626.616C342.292 624.227 342.036 622.648 341.524 621.88C341.097 621.112 340.116 620.728 338.58 620.728H334.74V616.504L353.428 614.2H357.14V664.376ZM399.065 676.408C396.761 676.408 394.841 676.195 393.305 675.768C391.854 675.427 390.105 674.915 388.057 674.232C386.094 673.379 384.473 672.952 383.193 672.952C382.169 672.952 381.358 673.165 380.761 673.592C380.249 673.933 379.737 674.531 379.225 675.384H376.793L375.641 654.264H378.841C380.462 659.384 383.022 663.523 386.521 666.68C390.105 669.837 394.03 671.416 398.297 671.416C401.369 671.416 403.758 670.605 405.465 668.984C407.172 667.277 408.025 665.016 408.025 662.2C408.025 660.408 407.641 658.957 406.873 657.848C406.105 656.653 404.953 655.587 403.417 654.648C401.881 653.709 399.364 652.387 395.865 650.68L393.305 649.4C387.417 646.499 383.321 643.811 381.017 641.336C378.798 638.776 377.689 635.491 377.689 631.48C377.689 625.763 379.566 621.368 383.321 618.296C387.076 615.139 392.196 613.56 398.681 613.56C402.18 613.56 405.508 614.115 408.665 615.224C410.542 615.736 411.822 615.992 412.505 615.992C413.444 615.992 414.084 615.821 414.425 615.48C414.766 615.139 414.98 614.797 415.065 614.456C415.236 614.029 415.321 613.773 415.321 613.688H418.009L419.033 632.504H415.833C414.809 628.408 412.804 625.08 409.817 622.52C406.916 619.96 403.588 618.68 399.833 618.68C397.188 618.68 394.969 619.32 393.177 620.6C391.47 621.88 390.617 623.587 390.617 625.72C390.617 629.56 393.518 632.803 399.321 635.448L403.289 637.24C407.385 639.117 410.67 640.867 413.145 642.488C415.62 644.109 417.582 646.115 419.033 648.504C420.484 650.808 421.209 653.667 421.209 657.08C421.209 662.883 419.161 667.576 415.065 671.16C411.054 674.659 405.721 676.408 399.065 676.408ZM450.055 676.408C445.362 676.408 441.692 675.128 439.047 672.568C436.402 669.923 435.079 666.211 435.079 661.432V619.96H427.527V615.736C431.964 614.371 435.506 612.024 438.151 608.696C440.796 605.283 442.887 600.632 444.423 594.744H449.799V614.84H463.495V619.96H449.799V656.952C449.799 660.792 450.524 663.651 451.975 665.528C453.426 667.405 455.687 668.344 458.759 668.344C461.063 668.344 463.196 667.917 465.159 667.064L466.567 670.264C463.41 672.312 460.679 673.848 458.375 674.872C456.156 675.896 453.383 676.408 450.055 676.408ZM510.011 613.432C513.68 613.432 516.368 614.499 518.075 616.632C519.867 618.68 520.763 621.197 520.763 624.184C520.763 627 520.038 629.219 518.587 630.84C517.136 632.376 515.088 633.144 512.443 633.144C510.139 633.144 508.304 632.547 506.939 631.352C505.659 630.157 505.019 628.493 505.019 626.36C505.019 625.08 505.19 624.056 505.531 623.288C505.958 622.52 506.47 621.795 507.067 621.112C507.75 620.429 508.091 619.96 508.091 619.704C508.091 619.363 507.963 619.064 507.707 618.808C507.451 618.552 507.024 618.424 506.427 618.424C504.891 618.424 503.184 619.405 501.307 621.368C499.43 623.331 497.808 625.976 496.443 629.304C495.078 632.547 494.395 636.045 494.395 639.8V664.376C494.395 666.253 494.608 667.619 495.035 668.472C495.547 669.325 496.528 669.923 497.979 670.264C499.43 670.605 501.776 670.776 505.019 670.776V675H471.227V670.776C473.787 670.776 475.622 670.605 476.731 670.264C477.84 669.837 478.566 669.197 478.907 668.344C479.248 667.491 479.419 666.168 479.419 664.376V627.384C479.419 625.08 479.163 623.544 478.651 622.776C478.139 621.923 477.2 621.496 475.835 621.496H471.995V617.144L490.427 614.2H494.011V625.336H494.267C498.022 617.4 503.27 613.432 510.011 613.432ZM541.069 605.624C538.594 605.624 536.589 604.856 535.053 603.32C533.517 601.699 532.749 599.693 532.749 597.304C532.749 594.915 533.517 592.909 535.053 591.288C536.589 589.667 538.594 588.856 541.069 588.856C543.629 588.856 545.677 589.667 547.213 591.288C548.749 592.909 549.517 594.915 549.517 597.304C549.517 599.693 548.706 601.699 547.085 603.32C545.464 604.856 543.458 605.624 541.069 605.624ZM525.837 670.776C528.397 670.776 530.232 670.605 531.341 670.264C532.45 669.837 533.176 669.197 533.517 668.344C533.858 667.491 534.029 666.168 534.029 664.376V627.384C534.029 624.995 533.773 623.416 533.261 622.648C532.834 621.88 531.896 621.496 530.445 621.496H526.605V617.144L545.421 614.2H549.005V664.376C549.005 666.253 549.176 667.619 549.517 668.472C549.858 669.325 550.584 669.923 551.693 670.264C552.802 670.605 554.637 670.776 557.197 670.776V675H525.837V670.776ZM621.285 645.688H582.885C583.141 653.027 584.549 658.616 587.109 662.456C589.669 666.296 593.978 668.216 600.037 668.216C604.218 668.216 607.674 667.277 610.405 665.4C613.136 663.437 615.312 660.536 616.933 656.696L620.901 659C618.768 664.205 615.781 668.387 611.941 671.544C608.101 674.701 602.341 676.28 594.661 676.28C576.314 676.28 567.141 665.912 567.141 645.176C567.141 634.68 569.445 626.787 574.053 621.496C578.746 616.205 585.573 613.56 594.533 613.56C603.92 613.56 610.704 616.291 614.885 621.752C619.152 627.213 621.285 634.637 621.285 644.024V645.688ZM605.669 640.568C605.669 632.973 604.986 627.427 603.621 623.928C602.256 620.429 599.397 618.68 595.045 618.68C590.864 618.68 587.792 620.429 585.829 623.928C583.952 627.427 582.928 632.973 582.757 640.568H605.669ZM656.69 676.408C654.386 676.408 652.466 676.195 650.93 675.768C649.479 675.427 647.73 674.915 645.682 674.232C643.719 673.379 642.098 672.952 640.818 672.952C639.794 672.952 638.983 673.165 638.386 673.592C637.874 673.933 637.362 674.531 636.85 675.384H634.418L633.266 654.264H636.466C638.087 659.384 640.647 663.523 644.146 666.68C647.73 669.837 651.655 671.416 655.922 671.416C658.994 671.416 661.383 670.605 663.09 668.984C664.797 667.277 665.65 665.016 665.65 662.2C665.65 660.408 665.266 658.957 664.498 657.848C663.73 656.653 662.578 655.587 661.042 654.648C659.506 653.709 656.989 652.387 653.49 650.68L650.93 649.4C645.042 646.499 640.946 643.811 638.642 641.336C636.423 638.776 635.314 635.491 635.314 631.48C635.314 625.763 637.191 621.368 640.946 618.296C644.701 615.139 649.821 613.56 656.306 613.56C659.805 613.56 663.133 614.115 666.29 615.224C668.167 615.736 669.447 615.992 670.13 615.992C671.069 615.992 671.709 615.821 672.05 615.48C672.391 615.139 672.605 614.797 672.69 614.456C672.861 614.029 672.946 613.773 672.946 613.688H675.634L676.658 632.504H673.458C672.434 628.408 670.429 625.08 667.442 622.52C664.541 619.96 661.213 618.68 657.458 618.68C654.813 618.68 652.594 619.32 650.802 620.6C649.095 621.88 648.242 623.587 648.242 625.72C648.242 629.56 651.143 632.803 656.946 635.448L660.914 637.24C665.01 639.117 668.295 640.867 670.77 642.488C673.245 644.109 675.207 646.115 676.658 648.504C678.109 650.808 678.834 653.667 678.834 657.08C678.834 662.883 676.786 667.576 672.69 671.16C668.679 674.659 663.346 676.408 656.69 676.408Z" fill="#CF1767"/>
</svg>
