<svg width="1200" height="650" viewBox="0 0 1200 650" fill="none" xmlns="http://www.w3.org/2000/svg">
<rect width="1200" height="650" fill="black"/>
<path d="M102.632 195.776C105.789 195.776 108.051 195.605 109.416 195.264C110.781 194.837 111.677 194.155 112.104 193.216C112.531 192.277 112.744 190.741 112.744 188.608V127.04C112.744 124.821 112.531 123.243 112.104 122.304C111.677 121.365 110.781 120.725 109.416 120.384C108.051 119.957 105.789 119.744 102.632 119.744V115.52H142.184C151.4 115.52 158.355 117.312 163.048 120.896C167.741 124.48 170.088 129.6 170.088 136.256C170.088 142.229 168.296 147.051 164.712 150.72C161.128 154.304 156.307 156.565 150.248 157.504V157.76C155.624 159.04 159.421 161.429 161.64 164.928C163.859 168.341 165.437 173.248 166.376 179.648L166.76 182.208C167.357 186.304 168.595 189.589 170.472 192.064C172.435 194.539 175.08 195.776 178.408 195.776V200H157.544C155.155 198.123 153.32 194.197 152.04 188.224L148.2 170.56C147.517 167.147 146.152 164.672 144.104 163.136C142.056 161.515 139.155 160.704 135.4 160.704H128.36V188.608C128.36 190.741 128.573 192.32 129 193.344C129.427 194.283 130.323 194.923 131.688 195.264C133.053 195.605 135.272 195.776 138.344 195.776V200H102.632V195.776ZM136.04 155.584C142.013 155.584 146.408 154.133 149.224 151.232C152.125 148.331 153.576 143.936 153.576 138.048C153.576 132.075 152.125 127.68 149.224 124.864C146.323 121.963 141.928 120.512 136.04 120.512C132.883 120.512 130.792 120.939 129.768 121.792C128.829 122.56 128.36 123.883 128.36 125.76V155.584H136.04ZM211.959 201.28C201.719 201.28 194.167 198.763 189.303 193.728C184.524 188.693 182.135 180.8 182.135 170.048C182.135 159.296 184.567 151.36 189.431 146.24C194.295 141.035 201.89 138.432 212.215 138.432C222.37 138.432 229.836 140.992 234.615 146.112C239.394 151.147 241.783 159.04 241.783 169.792C241.783 180.629 239.351 188.608 234.487 193.728C229.708 198.763 222.199 201.28 211.959 201.28ZM211.959 196.16C216.908 196.16 220.492 194.069 222.711 189.888C224.93 185.707 226.039 179.264 226.039 170.56C226.039 161.259 224.887 154.432 222.583 150.08C220.279 145.728 216.695 143.552 211.831 143.552C206.967 143.552 203.383 145.685 201.079 149.952C198.86 154.133 197.751 160.789 197.751 169.92C197.751 179.051 198.86 185.707 201.079 189.888C203.383 194.069 207.01 196.16 211.959 196.16ZM311.018 197.312C309.141 198.421 307.093 199.36 304.874 200.128C302.741 200.896 300.053 201.28 296.81 201.28C293.311 201.28 290.794 200.725 289.258 199.616C287.807 198.507 287.082 196.203 287.082 192.704C284.181 195.264 281.194 197.355 278.122 198.976C275.05 200.512 271.637 201.28 267.882 201.28C263.274 201.28 259.477 200.171 256.49 197.952C253.503 195.733 252.01 192.576 252.01 188.48C252.01 182.677 255.082 177.6 261.226 173.248C267.455 168.811 276.074 165.611 287.082 163.648V155.84C286.997 152.256 286.058 149.568 284.266 147.776C282.559 145.984 279.53 145.088 275.178 145.088C272.789 145.088 270.698 145.472 268.906 146.24C267.199 146.923 266.346 147.648 266.346 148.416C266.346 149.184 266.858 150.08 267.882 151.104C268.565 151.872 269.077 152.555 269.418 153.152C269.759 153.749 269.93 154.56 269.93 155.584C269.93 157.717 269.29 159.424 268.01 160.704C266.73 161.899 265.023 162.496 262.89 162.496C260.671 162.496 258.879 161.813 257.514 160.448C256.149 159.083 255.466 157.291 255.466 155.072C255.466 152.256 256.49 149.611 258.538 147.136C260.671 144.661 263.701 142.699 267.626 141.248C271.637 139.712 276.33 138.944 281.706 138.944C288.533 138.944 293.525 140.352 296.682 143.168C299.925 145.984 301.546 150.848 301.546 157.76V186.176C301.546 189.504 301.887 191.808 302.57 193.088C303.338 194.283 304.533 194.88 306.154 194.88C307.007 194.88 307.775 194.752 308.458 194.496C309.141 194.155 309.567 193.941 309.738 193.856L311.018 197.312ZM266.474 184C266.474 189.376 269.631 192.064 275.946 192.064C279.445 192.064 283.157 190.485 287.082 187.328V168.64C279.999 170.176 274.794 172.181 271.466 174.656C268.138 177.045 266.474 180.16 266.474 184ZM383.046 195.776V200H361.414L360.646 194.496C357.915 196.459 354.801 198.123 351.302 199.488C347.803 200.768 344.219 201.408 340.55 201.408C333.211 201.408 327.537 198.763 323.526 193.472C319.515 188.181 317.51 180.757 317.51 171.2C317.51 160.277 320.113 152.128 325.318 146.752C330.609 141.291 338.075 138.56 347.718 138.56C350.193 138.56 352.283 138.731 353.99 139.072C355.697 139.413 357.702 139.925 360.006 140.608H360.134V124.864C360.134 122.56 359.878 120.981 359.366 120.128C358.939 119.275 357.958 118.848 356.422 118.848H352.582V114.752L371.142 111.68H374.854V189.376C374.854 191.936 375.366 193.643 376.39 194.496C377.414 195.349 379.163 195.776 381.638 195.776H383.046ZM333.254 168.256C333.254 184.811 338.374 193.088 348.614 193.088C350.577 193.088 352.283 192.747 353.734 192.064C355.27 191.381 357.403 190.059 360.134 188.096V147.008C357.062 144.789 353.435 143.68 349.254 143.68C343.963 143.68 339.953 145.685 337.222 149.696C334.577 153.621 333.254 159.808 333.254 168.256ZM420.632 195.776C423.789 195.776 426.051 195.605 427.416 195.264C428.781 194.837 429.677 194.155 430.104 193.216C430.531 192.277 430.744 190.741 430.744 188.608V127.04C430.744 124.821 430.531 123.243 430.104 122.304C429.677 121.365 428.781 120.725 427.416 120.384C426.051 119.957 423.789 119.744 420.632 119.744V115.52H456.984V119.744C453.571 119.744 451.139 119.915 449.688 120.256C448.323 120.597 447.427 121.28 447 122.304C446.573 123.243 446.36 124.821 446.36 127.04V185.408C446.36 188.48 446.744 190.699 447.512 192.064C448.365 193.344 449.645 194.155 451.352 194.496C453.059 194.752 456.003 194.88 460.184 194.88C465.048 194.88 468.803 194.325 471.448 193.216C474.179 192.107 476.312 190.315 477.848 187.84C479.384 185.28 480.792 181.568 482.072 176.704H485.4L483.992 200H420.632V195.776ZM555.768 197.312C553.891 198.421 551.843 199.36 549.624 200.128C547.491 200.896 544.803 201.28 541.56 201.28C538.061 201.28 535.544 200.725 534.008 199.616C532.557 198.507 531.832 196.203 531.832 192.704C528.931 195.264 525.944 197.355 522.872 198.976C519.8 200.512 516.387 201.28 512.632 201.28C508.024 201.28 504.227 200.171 501.24 197.952C498.253 195.733 496.76 192.576 496.76 188.48C496.76 182.677 499.832 177.6 505.976 173.248C512.205 168.811 520.824 165.611 531.832 163.648V155.84C531.747 152.256 530.808 149.568 529.016 147.776C527.309 145.984 524.28 145.088 519.928 145.088C517.539 145.088 515.448 145.472 513.656 146.24C511.949 146.923 511.096 147.648 511.096 148.416C511.096 149.184 511.608 150.08 512.632 151.104C513.315 151.872 513.827 152.555 514.168 153.152C514.509 153.749 514.68 154.56 514.68 155.584C514.68 157.717 514.04 159.424 512.76 160.704C511.48 161.899 509.773 162.496 507.64 162.496C505.421 162.496 503.629 161.813 502.264 160.448C500.899 159.083 500.216 157.291 500.216 155.072C500.216 152.256 501.24 149.611 503.288 147.136C505.421 144.661 508.451 142.699 512.376 141.248C516.387 139.712 521.08 138.944 526.456 138.944C533.283 138.944 538.275 140.352 541.432 143.168C544.675 145.984 546.296 150.848 546.296 157.76V186.176C546.296 189.504 546.637 191.808 547.32 193.088C548.088 194.283 549.283 194.88 550.904 194.88C551.757 194.88 552.525 194.752 553.208 194.496C553.891 194.155 554.317 193.941 554.488 193.856L555.768 197.312ZM511.224 184C511.224 189.376 514.381 192.064 520.696 192.064C524.195 192.064 527.907 190.485 531.832 187.328V168.64C524.749 170.176 519.544 172.181 516.216 174.656C512.888 177.045 511.224 180.16 511.224 184ZM623.06 189.376C623.06 191.168 623.231 192.533 623.572 193.472C623.999 194.325 624.809 194.923 626.004 195.264C627.199 195.605 629.033 195.776 631.508 195.776V200H600.916V195.776C603.22 195.776 604.841 195.691 605.78 195.52C606.719 195.264 607.359 194.752 607.7 193.984C608.127 193.216 608.34 191.893 608.34 190.016V159.296C608.34 155.285 607.359 152.213 605.396 150.08C603.519 147.947 600.831 146.88 597.332 146.88C592.639 146.88 588.201 148.885 584.02 152.896V190.016C584.02 191.893 584.191 193.216 584.532 193.984C584.959 194.752 585.641 195.264 586.58 195.52C587.519 195.691 589.055 195.776 591.188 195.776V200H560.852V195.776C563.412 195.776 565.247 195.605 566.356 195.264C567.465 194.923 568.191 194.325 568.532 193.472C568.873 192.619 569.044 191.253 569.044 189.376V152.384C569.044 150.08 568.788 148.544 568.276 147.776C567.764 146.923 566.825 146.496 565.46 146.496H561.62V142.144L580.052 139.2H583.636V147.648H583.764C587.348 144.576 591.06 142.315 594.9 140.864C598.74 139.328 602.409 138.56 605.908 138.56C611.284 138.56 615.465 140.224 618.452 143.552C621.524 146.795 623.06 151.403 623.06 157.376V189.376ZM693.035 170.688H654.635C654.891 178.027 656.299 183.616 658.859 187.456C661.419 191.296 665.728 193.216 671.787 193.216C675.968 193.216 679.424 192.277 682.155 190.4C684.886 188.437 687.062 185.536 688.683 181.696L692.651 184C690.518 189.205 687.531 193.387 683.691 196.544C679.851 199.701 674.091 201.28 666.411 201.28C648.064 201.28 638.891 190.912 638.891 170.176C638.891 159.68 641.195 151.787 645.803 146.496C650.496 141.205 657.323 138.56 666.283 138.56C675.67 138.56 682.454 141.291 686.635 146.752C690.902 152.213 693.035 159.637 693.035 169.024V170.688ZM677.419 165.568C677.419 157.973 676.736 152.427 675.371 148.928C674.006 145.429 671.147 143.68 666.795 143.68C662.614 143.68 659.542 145.429 657.579 148.928C655.702 152.427 654.678 157.973 654.507 165.568H677.419ZM734.507 195.776C737.664 195.776 739.926 195.605 741.291 195.264C742.656 194.837 743.552 194.155 743.979 193.216C744.406 192.277 744.619 190.741 744.619 188.608V127.04C744.619 124.821 744.406 123.243 743.979 122.304C743.552 121.365 742.656 120.725 741.291 120.384C739.926 119.957 737.664 119.744 734.507 119.744V115.52H770.859V119.744C767.446 119.744 765.014 119.915 763.563 120.256C762.198 120.597 761.302 121.28 760.875 122.304C760.448 123.243 760.235 124.821 760.235 127.04V185.408C760.235 188.48 760.619 190.699 761.387 192.064C762.24 193.344 763.52 194.155 765.227 194.496C766.934 194.752 769.878 194.88 774.059 194.88C778.923 194.88 782.678 194.325 785.323 193.216C788.054 192.107 790.187 190.315 791.723 187.84C793.259 185.28 794.667 181.568 795.947 176.704H799.275L797.867 200H734.507V195.776ZM823.819 130.624C821.344 130.624 819.339 129.856 817.803 128.32C816.267 126.699 815.499 124.693 815.499 122.304C815.499 119.915 816.267 117.909 817.803 116.288C819.339 114.667 821.344 113.856 823.819 113.856C826.379 113.856 828.427 114.667 829.963 116.288C831.499 117.909 832.267 119.915 832.267 122.304C832.267 124.693 831.456 126.699 829.835 128.32C828.214 129.856 826.208 130.624 823.819 130.624ZM808.587 195.776C811.147 195.776 812.982 195.605 814.091 195.264C815.2 194.837 815.926 194.197 816.267 193.344C816.608 192.491 816.779 191.168 816.779 189.376V152.384C816.779 149.995 816.523 148.416 816.011 147.648C815.584 146.88 814.646 146.496 813.195 146.496H809.355V142.144L828.171 139.2H831.755V189.376C831.755 191.253 831.926 192.619 832.267 193.472C832.608 194.325 833.334 194.923 834.443 195.264C835.552 195.605 837.387 195.776 839.947 195.776V200H808.587V195.776ZM910.435 189.376C910.435 191.168 910.606 192.533 910.947 193.472C911.374 194.325 912.184 194.923 913.379 195.264C914.574 195.605 916.408 195.776 918.883 195.776V200H888.291V195.776C890.595 195.776 892.216 195.691 893.155 195.52C894.094 195.264 894.734 194.752 895.075 193.984C895.502 193.216 895.715 191.893 895.715 190.016V159.296C895.715 155.285 894.734 152.213 892.771 150.08C890.894 147.947 888.206 146.88 884.707 146.88C880.014 146.88 875.576 148.885 871.395 152.896V190.016C871.395 191.893 871.566 193.216 871.907 193.984C872.334 194.752 873.016 195.264 873.955 195.52C874.894 195.691 876.43 195.776 878.563 195.776V200H848.227V195.776C850.787 195.776 852.622 195.605 853.731 195.264C854.84 194.923 855.566 194.325 855.907 193.472C856.248 192.619 856.419 191.253 856.419 189.376V152.384C856.419 150.08 856.163 148.544 855.651 147.776C855.139 146.923 854.2 146.496 852.835 146.496H848.995V142.144L867.427 139.2H871.011V147.648H871.139C874.723 144.576 878.435 142.315 882.275 140.864C886.115 139.328 889.784 138.56 893.283 138.56C898.659 138.56 902.84 140.224 905.827 143.552C908.899 146.795 910.435 151.403 910.435 157.376V189.376ZM980.41 170.688H942.01C942.266 178.027 943.674 183.616 946.234 187.456C948.794 191.296 953.103 193.216 959.162 193.216C963.343 193.216 966.799 192.277 969.53 190.4C972.261 188.437 974.437 185.536 976.058 181.696L980.026 184C977.893 189.205 974.906 193.387 971.066 196.544C967.226 199.701 961.466 201.28 953.786 201.28C935.439 201.28 926.266 190.912 926.266 170.176C926.266 159.68 928.57 151.787 933.178 146.496C937.871 141.205 944.698 138.56 953.658 138.56C963.045 138.56 969.829 141.291 974.01 146.752C978.277 152.213 980.41 159.637 980.41 169.024V170.688ZM964.794 165.568C964.794 157.973 964.111 152.427 962.746 148.928C961.381 145.429 958.522 143.68 954.17 143.68C949.989 143.68 946.917 145.429 944.954 148.928C943.077 152.427 942.053 157.973 941.882 165.568H964.794ZM102.632 360.776C105.789 360.776 108.051 360.605 109.416 360.264C110.781 359.837 111.677 359.155 112.104 358.216C112.531 357.277 112.744 355.741 112.744 353.608V292.04C112.744 289.821 112.531 288.243 112.104 287.304C111.677 286.365 110.781 285.725 109.416 285.384C108.051 284.957 105.789 284.744 102.632 284.744V280.52H142.184C151.4 280.52 158.355 282.312 163.048 285.896C167.741 289.48 170.088 294.6 170.088 301.256C170.088 307.229 168.296 312.051 164.712 315.72C161.128 319.304 156.307 321.565 150.248 322.504V322.76C155.624 324.04 159.421 326.429 161.64 329.928C163.859 333.341 165.437 338.248 166.376 344.648L166.76 347.208C167.357 351.304 168.595 354.589 170.472 357.064C172.435 359.539 175.08 360.776 178.408 360.776V365H157.544C155.155 363.123 153.32 359.197 152.04 353.224L148.2 335.56C147.517 332.147 146.152 329.672 144.104 328.136C142.056 326.515 139.155 325.704 135.4 325.704H128.36V353.608C128.36 355.741 128.573 357.32 129 358.344C129.427 359.283 130.323 359.923 131.688 360.264C133.053 360.605 135.272 360.776 138.344 360.776V365H102.632V360.776ZM136.04 320.584C142.013 320.584 146.408 319.133 149.224 316.232C152.125 313.331 153.576 308.936 153.576 303.048C153.576 297.075 152.125 292.68 149.224 289.864C146.323 286.963 141.928 285.512 136.04 285.512C132.883 285.512 130.792 285.939 129.768 286.792C128.829 287.56 128.36 288.883 128.36 290.76V320.584H136.04ZM236.535 335.688H198.135C198.391 343.027 199.799 348.616 202.359 352.456C204.919 356.296 209.228 358.216 215.287 358.216C219.468 358.216 222.924 357.277 225.655 355.4C228.386 353.437 230.562 350.536 232.183 346.696L236.151 349C234.018 354.205 231.031 358.387 227.191 361.544C223.351 364.701 217.591 366.28 209.911 366.28C191.564 366.28 182.391 355.912 182.391 335.176C182.391 324.68 184.695 316.787 189.303 311.496C193.996 306.205 200.823 303.56 209.783 303.56C219.17 303.56 225.954 306.291 230.135 311.752C234.402 317.213 236.535 324.637 236.535 334.024V335.688ZM220.919 330.568C220.919 322.973 220.236 317.427 218.871 313.928C217.506 310.429 214.647 308.68 210.295 308.68C206.114 308.68 203.042 310.429 201.079 313.928C199.202 317.427 198.178 322.973 198.007 330.568H220.919ZM276.548 366.28C267.503 366.28 260.548 363.763 255.684 358.728C250.905 353.608 248.516 345.885 248.516 335.56C248.516 324.893 251.033 316.915 256.068 311.624C261.103 306.248 268.356 303.56 277.828 303.56C283.119 303.56 287.513 304.328 291.012 305.864C294.511 307.4 297.071 309.405 298.692 311.88C300.313 314.269 301.124 316.872 301.124 319.688C301.124 322.248 300.441 324.253 299.076 325.704C297.796 327.155 296.004 327.88 293.7 327.88C291.396 327.88 289.604 327.197 288.324 325.832C287.129 324.467 286.532 322.717 286.532 320.584C286.532 319.304 286.703 318.237 287.044 317.384C287.471 316.531 287.727 316.019 287.812 315.848C288.409 314.824 288.708 313.971 288.708 313.288C288.708 311.923 287.94 310.813 286.404 309.96C284.868 309.107 282.649 308.68 279.748 308.68C274.713 308.68 270.873 310.387 268.228 313.8C265.583 317.213 264.26 323.4 264.26 332.36C264.26 341.149 265.668 347.677 268.484 351.944C271.3 356.211 275.652 358.344 281.54 358.344C286.404 358.344 290.031 357.235 292.42 355.016C294.895 352.797 296.985 349.981 298.692 346.568L301.892 348.488C299.929 354.291 296.985 358.728 293.06 361.8C289.22 364.787 283.716 366.28 276.548 366.28ZM341.334 366.28C331.094 366.28 323.542 363.763 318.678 358.728C313.899 353.693 311.51 345.8 311.51 335.048C311.51 324.296 313.942 316.36 318.806 311.24C323.67 306.035 331.265 303.432 341.59 303.432C351.745 303.432 359.211 305.992 363.99 311.112C368.769 316.147 371.158 324.04 371.158 334.792C371.158 345.629 368.726 353.608 363.862 358.728C359.083 363.763 351.574 366.28 341.334 366.28ZM341.334 361.16C346.283 361.16 349.867 359.069 352.086 354.888C354.305 350.707 355.414 344.264 355.414 335.56C355.414 326.259 354.262 319.432 351.958 315.08C349.654 310.728 346.07 308.552 341.206 308.552C336.342 308.552 332.758 310.685 330.454 314.952C328.235 319.133 327.126 325.789 327.126 334.92C327.126 344.051 328.235 350.707 330.454 354.888C332.758 359.069 336.385 361.16 341.334 361.16ZM434.919 303.56C437.735 303.56 440.082 304.285 441.959 305.736C443.836 307.187 444.775 309.32 444.775 312.136C444.775 314.099 444.306 315.677 443.367 316.872C442.428 318.067 441.02 318.664 439.143 318.664C437.436 318.664 436.114 318.237 435.175 317.384C434.322 316.531 433.895 315.507 433.895 314.312C433.895 313.459 433.98 312.776 434.151 312.264C434.322 311.667 434.407 311.197 434.407 310.856C434.407 310.515 434.236 310.173 433.895 309.832C433.554 309.491 432.871 309.32 431.847 309.32C429.884 309.32 428.22 310.259 426.855 312.136C429.33 315.464 430.567 319.389 430.567 323.912C430.567 330.739 428.135 335.773 423.271 339.016C418.407 342.173 412.348 343.752 405.095 343.752C402.108 343.752 399.25 343.496 396.519 342.984C394.556 344.52 393.575 345.885 393.575 347.08C393.575 348.104 394.258 349.043 395.623 349.896C396.988 350.664 399.079 351.048 401.895 351.048H413.543C420.967 351.048 426.684 352.669 430.695 355.912C434.706 359.069 436.711 363.635 436.711 369.608C436.711 377.032 433.767 382.621 427.879 386.376C421.991 390.216 414.524 392.136 405.479 392.136C397.458 392.136 390.887 390.685 385.767 387.784C380.732 384.883 378.215 380.659 378.215 375.112C378.215 372.125 379.068 369.651 380.775 367.688C382.567 365.811 385.554 364.232 389.735 362.952C387.09 362.013 384.999 360.691 383.463 358.984C382.012 357.277 381.287 355.357 381.287 353.224C381.287 348.872 384.615 344.947 391.271 341.448C383.335 338.205 379.367 332.445 379.367 324.168C379.367 317.171 381.97 312.051 387.175 308.808C392.38 305.48 398.524 303.816 405.607 303.816C409.191 303.816 412.562 304.285 415.719 305.224C418.962 306.077 421.735 307.443 424.039 309.32C426.77 305.48 430.396 303.56 434.919 303.56ZM405.351 338.632C409.02 338.632 411.794 337.309 413.671 334.664C415.548 331.933 416.487 328.136 416.487 323.272C416.487 318.579 415.762 315.037 414.311 312.648C412.86 310.259 410.044 309.064 405.863 309.064C401.596 309.064 398.695 310.301 397.159 312.776C395.623 315.251 394.855 318.963 394.855 323.912C394.855 328.776 395.58 332.445 397.031 334.92C398.482 337.395 401.255 338.632 405.351 338.632ZM424.679 374.472C424.679 370.888 423.228 368.243 420.327 366.536C417.426 364.915 412.946 364.104 406.887 364.104H398.567C393.959 365.896 391.655 369.139 391.655 373.832C391.655 377.757 393.234 380.957 396.391 383.432C399.548 385.907 403.516 387.144 408.295 387.144C412.818 387.144 416.658 386.035 419.815 383.816C423.058 381.597 424.679 378.483 424.679 374.472ZM509.435 354.376C509.435 356.168 509.606 357.533 509.947 358.472C510.374 359.325 511.184 359.923 512.379 360.264C513.574 360.605 515.408 360.776 517.883 360.776V365H487.291V360.776C489.595 360.776 491.216 360.691 492.155 360.52C493.094 360.264 493.734 359.752 494.075 358.984C494.502 358.216 494.715 356.893 494.715 355.016V324.296C494.715 320.285 493.734 317.213 491.771 315.08C489.894 312.947 487.206 311.88 483.707 311.88C479.014 311.88 474.576 313.885 470.395 317.896V355.016C470.395 356.893 470.566 358.216 470.907 358.984C471.334 359.752 472.016 360.264 472.955 360.52C473.894 360.691 475.43 360.776 477.563 360.776V365H447.227V360.776C449.787 360.776 451.622 360.605 452.731 360.264C453.84 359.923 454.566 359.325 454.907 358.472C455.248 357.619 455.419 356.253 455.419 354.376V317.384C455.419 315.08 455.163 313.544 454.651 312.776C454.139 311.923 453.2 311.496 451.835 311.496H447.995V307.144L466.427 304.2H470.011V312.648H470.139C473.723 309.576 477.435 307.315 481.275 305.864C485.115 304.328 488.784 303.56 492.283 303.56C497.659 303.56 501.84 305.224 504.827 308.552C507.899 311.795 509.435 316.403 509.435 322.376V354.376ZM540.694 295.624C538.219 295.624 536.214 294.856 534.678 293.32C533.142 291.699 532.374 289.693 532.374 287.304C532.374 284.915 533.142 282.909 534.678 281.288C536.214 279.667 538.219 278.856 540.694 278.856C543.254 278.856 545.302 279.667 546.838 281.288C548.374 282.909 549.142 284.915 549.142 287.304C549.142 289.693 548.331 291.699 546.71 293.32C545.089 294.856 543.083 295.624 540.694 295.624ZM525.462 360.776C528.022 360.776 529.857 360.605 530.966 360.264C532.075 359.837 532.801 359.197 533.142 358.344C533.483 357.491 533.654 356.168 533.654 354.376V317.384C533.654 314.995 533.398 313.416 532.886 312.648C532.459 311.88 531.521 311.496 530.07 311.496H526.23V307.144L545.046 304.2H548.63V354.376C548.63 356.253 548.801 357.619 549.142 358.472C549.483 359.325 550.209 359.923 551.318 360.264C552.427 360.605 554.262 360.776 556.822 360.776V365H525.462V360.776ZM584.43 366.408C579.737 366.408 576.067 365.128 573.422 362.568C570.777 359.923 569.454 356.211 569.454 351.432V309.96H561.902V305.736C566.339 304.371 569.881 302.024 572.526 298.696C575.171 295.283 577.262 290.632 578.798 284.744H584.174V304.84H597.87V309.96H584.174V346.952C584.174 350.792 584.899 353.651 586.35 355.528C587.801 357.405 590.062 358.344 593.134 358.344C595.438 358.344 597.571 357.917 599.534 357.064L600.942 360.264C597.785 362.312 595.054 363.848 592.75 364.872C590.531 365.896 587.758 366.408 584.43 366.408ZM620.194 295.624C617.719 295.624 615.714 294.856 614.178 293.32C612.642 291.699 611.874 289.693 611.874 287.304C611.874 284.915 612.642 282.909 614.178 281.288C615.714 279.667 617.719 278.856 620.194 278.856C622.754 278.856 624.802 279.667 626.338 281.288C627.874 282.909 628.642 284.915 628.642 287.304C628.642 289.693 627.831 291.699 626.21 293.32C624.589 294.856 622.583 295.624 620.194 295.624ZM604.962 360.776C607.522 360.776 609.357 360.605 610.466 360.264C611.575 359.837 612.301 359.197 612.642 358.344C612.983 357.491 613.154 356.168 613.154 354.376V317.384C613.154 314.995 612.898 313.416 612.386 312.648C611.959 311.88 611.021 311.496 609.57 311.496H605.73V307.144L624.546 304.2H628.13V354.376C628.13 356.253 628.301 357.619 628.642 358.472C628.983 359.325 629.709 359.923 630.818 360.264C631.927 360.605 633.762 360.776 636.322 360.776V365H604.962V360.776ZM675.834 366.28C665.594 366.28 658.042 363.763 653.178 358.728C648.399 353.693 646.01 345.8 646.01 335.048C646.01 324.296 648.442 316.36 653.306 311.24C658.17 306.035 665.765 303.432 676.09 303.432C686.245 303.432 693.711 305.992 698.49 311.112C703.269 316.147 705.658 324.04 705.658 334.792C705.658 345.629 703.226 353.608 698.362 358.728C693.583 363.763 686.074 366.28 675.834 366.28ZM675.834 361.16C680.783 361.16 684.367 359.069 686.586 354.888C688.805 350.707 689.914 344.264 689.914 335.56C689.914 326.259 688.762 319.432 686.458 315.08C684.154 310.728 680.57 308.552 675.706 308.552C670.842 308.552 667.258 310.685 664.954 314.952C662.735 319.133 661.626 325.789 661.626 334.92C661.626 344.051 662.735 350.707 664.954 354.888C667.258 359.069 670.885 361.16 675.834 361.16ZM777.935 354.376C777.935 356.168 778.106 357.533 778.447 358.472C778.874 359.325 779.684 359.923 780.879 360.264C782.074 360.605 783.908 360.776 786.383 360.776V365H755.791V360.776C758.095 360.776 759.716 360.691 760.655 360.52C761.594 360.264 762.234 359.752 762.575 358.984C763.002 358.216 763.215 356.893 763.215 355.016V324.296C763.215 320.285 762.234 317.213 760.271 315.08C758.394 312.947 755.706 311.88 752.207 311.88C747.514 311.88 743.076 313.885 738.895 317.896V355.016C738.895 356.893 739.066 358.216 739.407 358.984C739.834 359.752 740.516 360.264 741.455 360.52C742.394 360.691 743.93 360.776 746.063 360.776V365H715.727V360.776C718.287 360.776 720.122 360.605 721.231 360.264C722.34 359.923 723.066 359.325 723.407 358.472C723.748 357.619 723.919 356.253 723.919 354.376V317.384C723.919 315.08 723.663 313.544 723.151 312.776C722.639 311.923 721.7 311.496 720.335 311.496H716.495V307.144L734.927 304.2H738.511V312.648H738.639C742.223 309.576 745.935 307.315 749.775 305.864C753.615 304.328 757.284 303.56 760.783 303.56C766.159 303.56 770.34 305.224 773.327 308.552C776.399 311.795 777.935 316.403 777.935 322.376V354.376ZM145.256 531.536C133.565 531.536 125.075 529.147 119.784 524.368C114.579 519.504 111.976 511.653 111.976 500.816V457.04C111.976 454.821 111.763 453.243 111.336 452.304C110.909 451.365 110.013 450.725 108.648 450.384C107.368 449.957 105.149 449.744 101.992 449.744V445.52H137.704V449.744C134.547 449.744 132.285 449.957 130.92 450.384C129.555 450.725 128.659 451.365 128.232 452.304C127.805 453.243 127.592 454.821 127.592 457.04V501.072C127.592 509.349 129.128 515.621 132.2 519.888C135.357 524.155 139.923 526.288 145.896 526.288C157.928 526.288 163.944 517.883 163.944 501.072V457.04C163.944 454.821 163.731 453.243 163.304 452.304C162.877 451.365 161.981 450.725 160.616 450.384C159.336 449.957 157.117 449.744 153.96 449.744V445.52H189.672V449.744C186.429 449.744 184.125 449.915 182.76 450.256C181.395 450.597 180.499 451.28 180.072 452.304C179.731 453.243 179.56 454.821 179.56 457.04V500.816C179.56 511.483 176.787 519.291 171.24 524.24C165.779 529.104 157.117 531.536 145.256 531.536ZM223.44 531.408C221.136 531.408 219.216 531.195 217.68 530.768C216.229 530.427 214.48 529.915 212.432 529.232C210.469 528.379 208.848 527.952 207.568 527.952C206.544 527.952 205.733 528.165 205.136 528.592C204.624 528.933 204.112 529.531 203.6 530.384H201.168L200.016 509.264H203.216C204.837 514.384 207.397 518.523 210.896 521.68C214.48 524.837 218.405 526.416 222.672 526.416C225.744 526.416 228.133 525.605 229.84 523.984C231.547 522.277 232.4 520.016 232.4 517.2C232.4 515.408 232.016 513.957 231.248 512.848C230.48 511.653 229.328 510.587 227.792 509.648C226.256 508.709 223.739 507.387 220.24 505.68L217.68 504.4C211.792 501.499 207.696 498.811 205.392 496.336C203.173 493.776 202.064 490.491 202.064 486.48C202.064 480.763 203.941 476.368 207.696 473.296C211.451 470.139 216.571 468.56 223.056 468.56C226.555 468.56 229.883 469.115 233.04 470.224C234.917 470.736 236.197 470.992 236.88 470.992C237.819 470.992 238.459 470.821 238.8 470.48C239.141 470.139 239.355 469.797 239.44 469.456C239.611 469.029 239.696 468.773 239.696 468.688H242.384L243.408 487.504H240.208C239.184 483.408 237.179 480.08 234.192 477.52C231.291 474.96 227.963 473.68 224.208 473.68C221.563 473.68 219.344 474.32 217.552 475.6C215.845 476.88 214.992 478.587 214.992 480.72C214.992 484.56 217.893 487.803 223.696 490.448L227.664 492.24C231.76 494.117 235.045 495.867 237.52 497.488C239.995 499.109 241.957 501.115 243.408 503.504C244.859 505.808 245.584 508.667 245.584 512.08C245.584 517.883 243.536 522.576 239.44 526.16C235.429 529.659 230.096 531.408 223.44 531.408ZM269.694 460.624C267.219 460.624 265.214 459.856 263.678 458.32C262.142 456.699 261.374 454.693 261.374 452.304C261.374 449.915 262.142 447.909 263.678 446.288C265.214 444.667 267.219 443.856 269.694 443.856C272.254 443.856 274.302 444.667 275.838 446.288C277.374 447.909 278.142 449.915 278.142 452.304C278.142 454.693 277.331 456.699 275.71 458.32C274.089 459.856 272.083 460.624 269.694 460.624ZM254.462 525.776C257.022 525.776 258.857 525.605 259.966 525.264C261.075 524.837 261.801 524.197 262.142 523.344C262.483 522.491 262.654 521.168 262.654 519.376V482.384C262.654 479.995 262.398 478.416 261.886 477.648C261.459 476.88 260.521 476.496 259.07 476.496H255.23V472.144L274.046 469.2H277.63V519.376C277.63 521.253 277.801 522.619 278.142 523.472C278.483 524.325 279.209 524.923 280.318 525.264C281.427 525.605 283.262 525.776 285.822 525.776V530H254.462V525.776ZM356.31 519.376C356.31 521.168 356.481 522.533 356.822 523.472C357.249 524.325 358.059 524.923 359.254 525.264C360.449 525.605 362.283 525.776 364.758 525.776V530H334.166V525.776C336.47 525.776 338.091 525.691 339.03 525.52C339.969 525.264 340.609 524.752 340.95 523.984C341.377 523.216 341.59 521.893 341.59 520.016V489.296C341.59 485.285 340.609 482.213 338.646 480.08C336.769 477.947 334.081 476.88 330.582 476.88C325.889 476.88 321.451 478.885 317.27 482.896V520.016C317.27 521.893 317.441 523.216 317.782 523.984C318.209 524.752 318.891 525.264 319.83 525.52C320.769 525.691 322.305 525.776 324.438 525.776V530H294.102V525.776C296.662 525.776 298.497 525.605 299.606 525.264C300.715 524.923 301.441 524.325 301.782 523.472C302.123 522.619 302.294 521.253 302.294 519.376V482.384C302.294 480.08 302.038 478.544 301.526 477.776C301.014 476.923 300.075 476.496 298.71 476.496H294.87V472.144L313.302 469.2H316.886V477.648H317.014C320.598 474.576 324.31 472.315 328.15 470.864C331.99 469.328 335.659 468.56 339.158 468.56C344.534 468.56 348.715 470.224 351.702 473.552C354.774 476.795 356.31 481.403 356.31 487.376V519.376ZM425.294 468.56C428.11 468.56 430.457 469.285 432.334 470.736C434.211 472.187 435.15 474.32 435.15 477.136C435.15 479.099 434.681 480.677 433.742 481.872C432.803 483.067 431.395 483.664 429.518 483.664C427.811 483.664 426.489 483.237 425.55 482.384C424.697 481.531 424.27 480.507 424.27 479.312C424.27 478.459 424.355 477.776 424.526 477.264C424.697 476.667 424.782 476.197 424.782 475.856C424.782 475.515 424.611 475.173 424.27 474.832C423.929 474.491 423.246 474.32 422.222 474.32C420.259 474.32 418.595 475.259 417.23 477.136C419.705 480.464 420.942 484.389 420.942 488.912C420.942 495.739 418.51 500.773 413.646 504.016C408.782 507.173 402.723 508.752 395.47 508.752C392.483 508.752 389.625 508.496 386.894 507.984C384.931 509.52 383.95 510.885 383.95 512.08C383.95 513.104 384.633 514.043 385.998 514.896C387.363 515.664 389.454 516.048 392.27 516.048H403.918C411.342 516.048 417.059 517.669 421.07 520.912C425.081 524.069 427.086 528.635 427.086 534.608C427.086 542.032 424.142 547.621 418.254 551.376C412.366 555.216 404.899 557.136 395.854 557.136C387.833 557.136 381.262 555.685 376.142 552.784C371.107 549.883 368.59 545.659 368.59 540.112C368.59 537.125 369.443 534.651 371.15 532.688C372.942 530.811 375.929 529.232 380.11 527.952C377.465 527.013 375.374 525.691 373.838 523.984C372.387 522.277 371.662 520.357 371.662 518.224C371.662 513.872 374.99 509.947 381.646 506.448C373.71 503.205 369.742 497.445 369.742 489.168C369.742 482.171 372.345 477.051 377.55 473.808C382.755 470.48 388.899 468.816 395.982 468.816C399.566 468.816 402.937 469.285 406.094 470.224C409.337 471.077 412.11 472.443 414.414 474.32C417.145 470.48 420.771 468.56 425.294 468.56ZM395.726 503.632C399.395 503.632 402.169 502.309 404.046 499.664C405.923 496.933 406.862 493.136 406.862 488.272C406.862 483.579 406.137 480.037 404.686 477.648C403.235 475.259 400.419 474.064 396.238 474.064C391.971 474.064 389.07 475.301 387.534 477.776C385.998 480.251 385.23 483.963 385.23 488.912C385.23 493.776 385.955 497.445 387.406 499.92C388.857 502.395 391.63 503.632 395.726 503.632ZM415.054 539.472C415.054 535.888 413.603 533.243 410.702 531.536C407.801 529.915 403.321 529.104 397.262 529.104H388.942C384.334 530.896 382.03 534.139 382.03 538.832C382.03 542.757 383.609 545.957 386.766 548.432C389.923 550.907 393.891 552.144 398.67 552.144C403.193 552.144 407.033 551.035 410.19 548.816C413.433 546.597 415.054 543.483 415.054 539.472ZM546.744 445.52V449.744C543.16 449.744 540.6 450.171 539.064 451.024C537.528 451.792 536.077 453.456 534.712 456.016L514.616 495.568V518.48C514.616 520.699 514.872 522.277 515.384 523.216C515.981 524.155 517.091 524.837 518.712 525.264C520.333 525.605 523.021 525.776 526.776 525.776V530H488.12V525.776C491.875 525.776 494.563 525.605 496.184 525.264C497.805 524.837 498.829 524.155 499.256 523.216C499.683 522.277 499.896 520.699 499.896 518.48V496.848L479.416 456.144C478.136 453.584 476.813 451.877 475.448 451.024C474.083 450.171 471.907 449.744 468.92 449.744V445.52H503.736V449.744H497.592C495.8 449.744 494.904 450.299 494.904 451.408C494.904 451.92 495.117 452.688 495.544 453.712L511.672 488.784H512.056L527.416 454.224C527.843 453.115 528.056 452.261 528.056 451.664C528.056 450.384 527.16 449.744 525.368 449.744H519.608V445.52H546.744ZM588.089 531.536C574.436 531.536 564.281 527.611 557.625 519.76C550.969 511.909 547.641 501.2 547.641 487.632C547.641 474.064 550.969 463.397 557.625 455.632C564.281 447.867 574.436 443.984 588.089 443.984C601.742 443.984 611.897 447.867 618.553 455.632C625.209 463.397 628.537 474.064 628.537 487.632C628.537 501.2 625.209 511.909 618.553 519.76C611.897 527.611 601.742 531.536 588.089 531.536ZM588.089 526.288C595.598 526.288 601.273 523.003 605.113 516.432C609.038 509.861 611.001 500.261 611.001 487.632C611.001 475.088 609.038 465.573 605.113 459.088C601.273 452.517 595.598 449.232 588.089 449.232C580.58 449.232 574.862 452.517 570.937 459.088C567.097 465.573 565.177 475.088 565.177 487.632C565.177 500.261 567.097 509.861 570.937 516.432C574.862 523.003 580.58 526.288 588.089 526.288ZM635.007 525.776C638.164 525.776 640.426 525.605 641.791 525.264C643.156 524.837 644.052 524.155 644.479 523.216C644.906 522.277 645.119 520.741 645.119 518.608V457.04C645.119 454.821 644.906 453.243 644.479 452.304C644.052 451.365 643.156 450.725 641.791 450.384C640.426 449.957 638.164 449.744 635.007 449.744V445.52H671.359V449.744C667.946 449.744 665.514 449.915 664.063 450.256C662.698 450.597 661.802 451.28 661.375 452.304C660.948 453.243 660.735 454.821 660.735 457.04V515.408C660.735 518.48 661.119 520.699 661.887 522.064C662.74 523.344 664.02 524.155 665.727 524.496C667.434 524.752 670.378 524.88 674.559 524.88C679.423 524.88 683.178 524.325 685.823 523.216C688.554 522.107 690.687 520.315 692.223 517.84C693.759 515.28 695.167 511.568 696.447 506.704H699.775L698.367 530H635.007V525.776ZM744.214 531.536C730.561 531.536 720.406 527.611 713.75 519.76C707.094 511.909 703.766 501.2 703.766 487.632C703.766 474.064 707.094 463.397 713.75 455.632C720.406 447.867 730.561 443.984 744.214 443.984C757.867 443.984 768.022 447.867 774.678 455.632C781.334 463.397 784.662 474.064 784.662 487.632C784.662 501.2 781.334 511.909 774.678 519.76C768.022 527.611 757.867 531.536 744.214 531.536ZM744.214 526.288C751.723 526.288 757.398 523.003 761.238 516.432C765.163 509.861 767.126 500.261 767.126 487.632C767.126 475.088 765.163 465.573 761.238 459.088C757.398 452.517 751.723 449.232 744.214 449.232C736.705 449.232 730.987 452.517 727.062 459.088C723.222 465.573 721.302 475.088 721.302 487.632C721.302 500.261 723.222 509.861 727.062 516.432C730.987 523.003 736.705 526.288 744.214 526.288ZM819.82 478.8C819.052 476.923 818.113 475.685 817.004 475.088C815.98 474.405 814.145 474.064 811.5 474.064V469.84H840.94V474.064H836.46C834.839 474.064 834.028 474.704 834.028 475.984C834.028 476.325 834.113 476.837 834.284 477.52L848.876 515.792H849.26L862.7 477.776C862.871 476.923 862.956 476.368 862.956 476.112C862.956 474.747 862.103 474.064 860.396 474.064H855.404V469.84H878.7V474.064C876.055 474.064 874.177 474.448 873.068 475.216C871.959 475.984 871.02 477.349 870.252 479.312L849.388 530H839.916L819.82 478.8ZM913.667 531.28C908.888 531.28 904.366 530.555 900.099 529.104C895.832 527.568 892.334 525.264 889.603 522.192C886.958 519.035 885.635 515.152 885.635 510.544C885.635 505.595 887.171 501.371 890.243 497.872C893.4 494.288 897.624 491.131 902.915 488.4C898.051 485.499 894.467 482.384 892.163 479.056C889.859 475.728 888.707 471.931 888.707 467.664C888.707 462.971 889.987 458.875 892.547 455.376C895.192 451.792 898.648 449.061 902.915 447.184C907.182 445.221 911.704 444.24 916.483 444.24C920.323 444.24 924.163 444.88 928.003 446.16C931.843 447.355 935.043 449.275 937.603 451.92C940.163 454.48 941.443 457.765 941.443 461.776C941.443 466.128 939.95 469.925 936.963 473.168C934.062 476.325 930.222 479.184 925.443 481.744C931.587 485.157 936.195 488.656 939.267 492.24C942.339 495.739 943.875 500.304 943.875 505.936C943.875 511.227 942.51 515.792 939.779 519.632C937.048 523.387 933.379 526.288 928.771 528.336C924.163 530.299 919.128 531.28 913.667 531.28ZM921.091 479.184C923.822 477.221 925.998 474.747 927.619 471.76C929.24 468.688 930.051 465.659 930.051 462.672C930.051 458.832 928.728 455.632 926.083 453.072C923.523 450.512 920.152 449.232 915.971 449.232C912.216 449.232 909.059 450.341 906.499 452.56C904.024 454.693 902.787 457.509 902.787 461.008C902.787 464.336 904.11 467.323 906.755 469.968C909.486 472.528 914.264 475.6 921.091 479.184ZM914.563 526.032C919.256 526.032 922.926 524.709 925.571 522.064C928.302 519.419 929.667 516.005 929.667 511.824C929.667 509.349 929.07 507.259 927.875 505.552C926.68 503.845 924.675 502.011 921.859 500.048C919.128 498.085 914.35 495.056 907.523 490.96C900.611 495.312 897.155 501.2 897.155 508.624C897.155 514 898.776 518.267 902.019 521.424C905.262 524.496 909.443 526.032 914.563 526.032Z" fill="#CF1767"/>
</svg>
