<svg width="1200" height="750" viewBox="0 0 1200 750" fill="none" xmlns="http://www.w3.org/2000/svg">
<rect width="1200" height="750" fill="black"/>
<path d="M102.12 140.248H105.32C109.928 155.608 117.736 163.288 128.744 163.288C133.352 163.288 137.021 162.051 139.752 159.576C142.483 157.016 143.848 153.475 143.848 148.952C143.848 145.027 142.653 141.741 140.264 139.096C137.875 136.365 134.205 133.976 129.256 131.928L126.44 130.776C119.101 127.789 113.384 124.419 109.288 120.664C105.277 116.909 103.272 111.661 103.272 104.92C103.272 100.397 104.296 96.344 106.344 92.76C108.477 89.0907 111.549 86.232 115.56 84.184C119.571 82.0507 124.392 80.984 130.024 80.984C132.84 80.984 135.229 81.1973 137.192 81.624C139.155 82.0507 141.203 82.648 143.336 83.416C144.957 84.0987 146.237 84.44 147.176 84.44C147.773 84.44 148.243 84.2693 148.584 83.928C148.925 83.5867 149.224 82.9467 149.48 82.008H152.04L153.32 105.176H150.248C148.968 98.9467 146.749 94.2107 143.592 90.968C140.435 87.7253 136.467 86.104 131.688 86.104C127.421 86.104 123.965 87.3413 121.32 89.816C118.675 92.2053 117.352 95.32 117.352 99.16C117.352 102.061 118.163 104.579 119.784 106.712C121.405 108.76 123.368 110.467 125.672 111.832C127.976 113.112 130.877 114.477 134.376 115.928L138.088 117.464C144.659 120.195 149.736 123.48 153.32 127.32C156.989 131.16 158.824 136.323 158.824 142.808C158.824 150.061 156.392 156.163 151.528 161.112C146.749 166.061 139.155 168.536 128.744 168.536C125.245 168.536 122.387 168.28 120.168 167.768C117.949 167.256 115.816 166.573 113.768 165.72C113.512 165.635 113 165.464 112.232 165.208C111.464 164.867 110.739 164.696 110.056 164.696C109.203 164.696 108.435 164.952 107.752 165.464C107.155 165.891 106.771 166.403 106.6 167H103.912L102.12 140.248ZM228.768 164.312C226.891 165.421 224.843 166.36 222.624 167.128C220.491 167.896 217.803 168.28 214.56 168.28C211.061 168.28 208.544 167.725 207.008 166.616C205.557 165.507 204.832 163.203 204.832 159.704C201.931 162.264 198.944 164.355 195.872 165.976C192.8 167.512 189.387 168.28 185.632 168.28C181.024 168.28 177.227 167.171 174.24 164.952C171.253 162.733 169.76 159.576 169.76 155.48C169.76 149.677 172.832 144.6 178.976 140.248C185.205 135.811 193.824 132.611 204.832 130.648V122.84C204.747 119.256 203.808 116.568 202.016 114.776C200.309 112.984 197.28 112.088 192.928 112.088C190.539 112.088 188.448 112.472 186.656 113.24C184.949 113.923 184.096 114.648 184.096 115.416C184.096 116.184 184.608 117.08 185.632 118.104C186.315 118.872 186.827 119.555 187.168 120.152C187.509 120.749 187.68 121.56 187.68 122.584C187.68 124.717 187.04 126.424 185.76 127.704C184.48 128.899 182.773 129.496 180.64 129.496C178.421 129.496 176.629 128.813 175.264 127.448C173.899 126.083 173.216 124.291 173.216 122.072C173.216 119.256 174.24 116.611 176.288 114.136C178.421 111.661 181.451 109.699 185.376 108.248C189.387 106.712 194.08 105.944 199.456 105.944C206.283 105.944 211.275 107.352 214.432 110.168C217.675 112.984 219.296 117.848 219.296 124.76V153.176C219.296 156.504 219.637 158.808 220.32 160.088C221.088 161.283 222.283 161.88 223.904 161.88C224.757 161.88 225.525 161.752 226.208 161.496C226.891 161.155 227.317 160.941 227.488 160.856L228.768 164.312ZM184.224 151C184.224 156.376 187.381 159.064 193.696 159.064C197.195 159.064 200.907 157.485 204.832 154.328V135.64C197.749 137.176 192.544 139.181 189.216 141.656C185.888 144.045 184.224 147.16 184.224 151ZM232.7 162.776C235.26 162.776 237.095 162.605 238.204 162.264C239.399 161.837 240.167 161.197 240.508 160.344C240.849 159.491 241.02 158.168 241.02 156.376V91.992C241.02 89.6027 240.764 88.024 240.252 87.256C239.74 86.4027 238.759 85.976 237.308 85.976H233.468V81.624L252.284 78.68H255.868V156.376C255.868 158.168 256.039 159.533 256.38 160.472C256.807 161.325 257.575 161.923 258.684 162.264C259.879 162.605 261.671 162.776 264.06 162.776V167H232.7V162.776ZM326.16 137.688H287.76C288.016 145.027 289.424 150.616 291.984 154.456C294.544 158.296 298.853 160.216 304.912 160.216C309.093 160.216 312.549 159.277 315.28 157.4C318.011 155.437 320.187 152.536 321.808 148.696L325.776 151C323.643 156.205 320.656 160.387 316.816 163.544C312.976 166.701 307.216 168.28 299.536 168.28C281.189 168.28 272.016 157.912 272.016 137.176C272.016 126.68 274.32 118.787 278.928 113.496C283.621 108.205 290.448 105.56 299.408 105.56C308.795 105.56 315.579 108.291 319.76 113.752C324.027 119.213 326.16 126.637 326.16 136.024V137.688ZM310.544 132.568C310.544 124.973 309.861 119.427 308.496 115.928C307.131 112.429 304.272 110.68 299.92 110.68C295.739 110.68 292.667 112.429 290.704 115.928C288.827 119.427 287.803 124.973 287.632 132.568H310.544ZM361.565 168.408C359.261 168.408 357.341 168.195 355.805 167.768C354.354 167.427 352.605 166.915 350.557 166.232C348.594 165.379 346.973 164.952 345.693 164.952C344.669 164.952 343.858 165.165 343.261 165.592C342.749 165.933 342.237 166.531 341.725 167.384H339.293L338.141 146.264H341.341C342.962 151.384 345.522 155.523 349.021 158.68C352.605 161.837 356.53 163.416 360.797 163.416C363.869 163.416 366.258 162.605 367.965 160.984C369.672 159.277 370.525 157.016 370.525 154.2C370.525 152.408 370.141 150.957 369.373 149.848C368.605 148.653 367.453 147.587 365.917 146.648C364.381 145.709 361.864 144.387 358.365 142.68L355.805 141.4C349.917 138.499 345.821 135.811 343.517 133.336C341.298 130.776 340.189 127.491 340.189 123.48C340.189 117.763 342.066 113.368 345.821 110.296C349.576 107.139 354.696 105.56 361.181 105.56C364.68 105.56 368.008 106.115 371.165 107.224C373.042 107.736 374.322 107.992 375.005 107.992C375.944 107.992 376.584 107.821 376.925 107.48C377.266 107.139 377.48 106.797 377.565 106.456C377.736 106.029 377.821 105.773 377.821 105.688H380.509L381.533 124.504H378.333C377.309 120.408 375.304 117.08 372.317 114.52C369.416 111.96 366.088 110.68 362.333 110.68C359.688 110.68 357.469 111.32 355.677 112.6C353.97 113.88 353.117 115.587 353.117 117.72C353.117 121.56 356.018 124.803 361.821 127.448L365.789 129.24C369.885 131.117 373.17 132.867 375.645 134.488C378.12 136.109 380.082 138.115 381.533 140.504C382.984 142.808 383.709 145.667 383.709 149.08C383.709 154.883 381.661 159.576 377.565 163.16C373.554 166.659 368.221 168.408 361.565 168.408ZM481.618 156.376C482.642 159.021 483.751 160.771 484.946 161.624C486.141 162.392 488.317 162.776 491.474 162.776V167H456.914V162.776H462.674C463.869 162.776 464.765 162.477 465.362 161.88C465.959 161.283 466.258 160.515 466.258 159.576C466.258 158.893 466.13 158.168 465.874 157.4L458.45 135.896H432.338L425.17 157.784C424.914 158.637 424.786 159.405 424.786 160.088C424.786 161.88 425.938 162.776 428.242 162.776H434.514V167H407.89V162.776C411.218 162.776 413.522 162.307 414.802 161.368C416.082 160.344 417.234 158.467 418.258 155.736L444.882 82.52H455.762L481.618 156.376ZM457.042 131.672L445.394 97.624H445.01L433.746 131.672H457.042ZM556.935 156.376C556.935 158.168 557.106 159.533 557.447 160.472C557.874 161.325 558.684 161.923 559.879 162.264C561.074 162.605 562.908 162.776 565.383 162.776V167H534.791V162.776C537.095 162.776 538.716 162.691 539.655 162.52C540.594 162.264 541.234 161.752 541.575 160.984C542.002 160.216 542.215 158.893 542.215 157.016V126.296C542.215 122.285 541.234 119.213 539.271 117.08C537.394 114.947 534.706 113.88 531.207 113.88C526.514 113.88 522.076 115.885 517.895 119.896V157.016C517.895 158.893 518.066 160.216 518.407 160.984C518.834 161.752 519.516 162.264 520.455 162.52C521.394 162.691 522.93 162.776 525.063 162.776V167H494.727V162.776C497.287 162.776 499.122 162.605 500.231 162.264C501.34 161.923 502.066 161.325 502.407 160.472C502.748 159.619 502.919 158.253 502.919 156.376V119.384C502.919 117.08 502.663 115.544 502.151 114.776C501.639 113.923 500.7 113.496 499.335 113.496H495.495V109.144L513.927 106.2H517.511V114.648H517.639C521.223 111.576 524.935 109.315 528.775 107.864C532.615 106.328 536.284 105.56 539.783 105.56C545.159 105.56 549.34 107.224 552.327 110.552C555.399 113.795 556.935 118.403 556.935 124.376V156.376ZM631.518 164.312C629.641 165.421 627.593 166.36 625.374 167.128C623.241 167.896 620.553 168.28 617.31 168.28C613.811 168.28 611.294 167.725 609.758 166.616C608.307 165.507 607.582 163.203 607.582 159.704C604.681 162.264 601.694 164.355 598.622 165.976C595.55 167.512 592.137 168.28 588.382 168.28C583.774 168.28 579.977 167.171 576.99 164.952C574.003 162.733 572.51 159.576 572.51 155.48C572.51 149.677 575.582 144.6 581.726 140.248C587.955 135.811 596.574 132.611 607.582 130.648V122.84C607.497 119.256 606.558 116.568 604.766 114.776C603.059 112.984 600.03 112.088 595.678 112.088C593.289 112.088 591.198 112.472 589.406 113.24C587.699 113.923 586.846 114.648 586.846 115.416C586.846 116.184 587.358 117.08 588.382 118.104C589.065 118.872 589.577 119.555 589.918 120.152C590.259 120.749 590.43 121.56 590.43 122.584C590.43 124.717 589.79 126.424 588.51 127.704C587.23 128.899 585.523 129.496 583.39 129.496C581.171 129.496 579.379 128.813 578.014 127.448C576.649 126.083 575.966 124.291 575.966 122.072C575.966 119.256 576.99 116.611 579.038 114.136C581.171 111.661 584.201 109.699 588.126 108.248C592.137 106.712 596.83 105.944 602.206 105.944C609.033 105.944 614.025 107.352 617.182 110.168C620.425 112.984 622.046 117.848 622.046 124.76V153.176C622.046 156.504 622.387 158.808 623.07 160.088C623.838 161.283 625.033 161.88 626.654 161.88C627.507 161.88 628.275 161.752 628.958 161.496C629.641 161.155 630.067 160.941 630.238 160.856L631.518 164.312ZM586.974 151C586.974 156.376 590.131 159.064 596.446 159.064C599.945 159.064 603.657 157.485 607.582 154.328V135.64C600.499 137.176 595.294 139.181 591.966 141.656C588.638 144.045 586.974 147.16 586.974 151ZM635.45 162.776C638.01 162.776 639.845 162.605 640.954 162.264C642.149 161.837 642.917 161.197 643.258 160.344C643.599 159.491 643.77 158.168 643.77 156.376V91.992C643.77 89.6027 643.514 88.024 643.002 87.256C642.49 86.4027 641.509 85.976 640.058 85.976H636.218V81.624L655.034 78.68H658.618V156.376C658.618 158.168 658.789 159.533 659.13 160.472C659.557 161.325 660.325 161.923 661.434 162.264C662.629 162.605 664.421 162.776 666.81 162.776V167H635.45V162.776ZM734.896 106.84V111.064C732.848 111.064 731.312 111.235 730.288 111.576C729.264 111.832 728.411 112.429 727.728 113.368C727.045 114.307 726.277 115.885 725.424 118.104L706.736 165.464L704.688 170.712C702.64 176.173 700.848 180.397 699.312 183.384C697.776 186.456 695.771 188.973 693.296 190.936C690.907 192.899 687.92 193.88 684.336 193.88C680.752 193.88 677.808 192.941 675.504 191.064C673.2 189.187 672.048 186.84 672.048 184.024C672.048 181.72 672.816 179.715 674.352 178.008C675.888 176.301 677.765 175.448 679.984 175.448C681.861 175.448 683.397 176.088 684.592 177.368C685.872 178.648 686.512 180.269 686.512 182.232C686.512 183.683 686.171 184.877 685.488 185.816C684.805 186.84 684.464 187.523 684.464 187.864C684.464 188.547 685.232 188.888 686.768 188.888C689.157 188.888 691.12 187.992 692.656 186.2C694.192 184.408 695.728 181.293 697.264 176.856L700.08 169.048L678.32 116.312C677.637 114.605 676.997 113.411 676.4 112.728C675.888 112.045 675.12 111.619 674.096 111.448C673.157 111.192 671.621 111.064 669.488 111.064V106.84H700.08V111.064H695.856C694.235 111.064 693.424 111.747 693.424 113.112C693.424 113.624 693.552 114.264 693.808 115.032L706.48 150.104H706.736L719.152 114.904L719.408 113.368C719.408 111.832 718.555 111.064 716.848 111.064H711.856V106.84H734.896ZM765.565 168.408C763.261 168.408 761.341 168.195 759.805 167.768C758.354 167.427 756.605 166.915 754.557 166.232C752.594 165.379 750.973 164.952 749.693 164.952C748.669 164.952 747.858 165.165 747.261 165.592C746.749 165.933 746.237 166.531 745.725 167.384H743.293L742.141 146.264H745.341C746.962 151.384 749.522 155.523 753.021 158.68C756.605 161.837 760.53 163.416 764.797 163.416C767.869 163.416 770.258 162.605 771.965 160.984C773.672 159.277 774.525 157.016 774.525 154.2C774.525 152.408 774.141 150.957 773.373 149.848C772.605 148.653 771.453 147.587 769.917 146.648C768.381 145.709 765.864 144.387 762.365 142.68L759.805 141.4C753.917 138.499 749.821 135.811 747.517 133.336C745.298 130.776 744.189 127.491 744.189 123.48C744.189 117.763 746.066 113.368 749.821 110.296C753.576 107.139 758.696 105.56 765.181 105.56C768.68 105.56 772.008 106.115 775.165 107.224C777.042 107.736 778.322 107.992 779.005 107.992C779.944 107.992 780.584 107.821 780.925 107.48C781.266 107.139 781.48 106.797 781.565 106.456C781.736 106.029 781.821 105.773 781.821 105.688H784.509L785.533 124.504H782.333C781.309 120.408 779.304 117.08 776.317 114.52C773.416 111.96 770.088 110.68 766.333 110.68C763.688 110.68 761.469 111.32 759.677 112.6C757.97 113.88 757.117 115.587 757.117 117.72C757.117 121.56 760.018 124.803 765.821 127.448L769.789 129.24C773.885 131.117 777.17 132.867 779.645 134.488C782.12 136.109 784.082 138.115 785.533 140.504C786.984 142.808 787.709 145.667 787.709 149.08C787.709 154.883 785.661 159.576 781.565 163.16C777.554 166.659 772.221 168.408 765.565 168.408ZM811.819 97.624C809.344 97.624 807.339 96.856 805.803 95.32C804.267 93.6987 803.499 91.6933 803.499 89.304C803.499 86.9147 804.267 84.9093 805.803 83.288C807.339 81.6667 809.344 80.856 811.819 80.856C814.379 80.856 816.427 81.6667 817.963 83.288C819.499 84.9093 820.267 86.9147 820.267 89.304C820.267 91.6933 819.456 93.6987 817.835 95.32C816.214 96.856 814.208 97.624 811.819 97.624ZM796.587 162.776C799.147 162.776 800.982 162.605 802.091 162.264C803.2 161.837 803.926 161.197 804.267 160.344C804.608 159.491 804.779 158.168 804.779 156.376V119.384C804.779 116.995 804.523 115.416 804.011 114.648C803.584 113.88 802.646 113.496 801.195 113.496H797.355V109.144L816.171 106.2H819.755V156.376C819.755 158.253 819.926 159.619 820.267 160.472C820.608 161.325 821.334 161.923 822.443 162.264C823.552 162.605 825.387 162.776 827.947 162.776V167H796.587V162.776ZM861.315 168.408C859.011 168.408 857.091 168.195 855.555 167.768C854.104 167.427 852.355 166.915 850.307 166.232C848.344 165.379 846.723 164.952 845.443 164.952C844.419 164.952 843.608 165.165 843.011 165.592C842.499 165.933 841.987 166.531 841.475 167.384H839.043L837.891 146.264H841.091C842.712 151.384 845.272 155.523 848.771 158.68C852.355 161.837 856.28 163.416 860.547 163.416C863.619 163.416 866.008 162.605 867.715 160.984C869.422 159.277 870.275 157.016 870.275 154.2C870.275 152.408 869.891 150.957 869.123 149.848C868.355 148.653 867.203 147.587 865.667 146.648C864.131 145.709 861.614 144.387 858.115 142.68L855.555 141.4C849.667 138.499 845.571 135.811 843.267 133.336C841.048 130.776 839.939 127.491 839.939 123.48C839.939 117.763 841.816 113.368 845.571 110.296C849.326 107.139 854.446 105.56 860.931 105.56C864.43 105.56 867.758 106.115 870.915 107.224C872.792 107.736 874.072 107.992 874.755 107.992C875.694 107.992 876.334 107.821 876.675 107.48C877.016 107.139 877.23 106.797 877.315 106.456C877.486 106.029 877.571 105.773 877.571 105.688H880.259L881.283 124.504H878.083C877.059 120.408 875.054 117.08 872.067 114.52C869.166 111.96 865.838 110.68 862.083 110.68C859.438 110.68 857.219 111.32 855.427 112.6C853.72 113.88 852.867 115.587 852.867 117.72C852.867 121.56 855.768 124.803 861.571 127.448L865.539 129.24C869.635 131.117 872.92 132.867 875.395 134.488C877.87 136.109 879.832 138.115 881.283 140.504C882.734 142.808 883.459 145.667 883.459 149.08C883.459 154.883 881.411 159.576 877.315 163.16C873.304 166.659 867.971 168.408 861.315 168.408ZM914.225 81.24H924.849L899.505 168.536H888.881L914.225 81.24ZM102.632 327.776C105.789 327.776 108.051 327.605 109.416 327.264C110.781 326.837 111.677 326.155 112.104 325.216C112.531 324.277 112.744 322.741 112.744 320.608V259.04C112.744 256.821 112.531 255.243 112.104 254.304C111.677 253.28 110.781 252.597 109.416 252.256C108.051 251.915 105.789 251.744 102.632 251.744V247.52H143.08C157.501 247.691 168.296 251.104 175.464 257.76C182.632 264.331 186.216 274.613 186.216 288.608C186.216 303.883 182.248 314.933 174.312 321.76C166.461 328.587 154.643 332 138.856 332H102.632V327.776ZM139.496 327.008C149.565 327.008 156.904 323.936 161.512 317.792C166.205 311.648 168.552 302.048 168.552 288.992C168.552 264.672 159.123 252.512 140.264 252.512C135.571 252.512 132.413 252.811 130.792 253.408C129.171 254.005 128.36 255.243 128.36 257.12V319.712C128.36 322.613 129.085 324.576 130.536 325.6C132.072 326.539 135.059 327.008 139.496 327.008ZM257.018 329.312C255.141 330.421 253.093 331.36 250.874 332.128C248.741 332.896 246.053 333.28 242.81 333.28C239.311 333.28 236.794 332.725 235.258 331.616C233.807 330.507 233.082 328.203 233.082 324.704C230.181 327.264 227.194 329.355 224.122 330.976C221.05 332.512 217.637 333.28 213.882 333.28C209.274 333.28 205.477 332.171 202.49 329.952C199.503 327.733 198.01 324.576 198.01 320.48C198.01 314.677 201.082 309.6 207.226 305.248C213.455 300.811 222.074 297.611 233.082 295.648V287.84C232.997 284.256 232.058 281.568 230.266 279.776C228.559 277.984 225.53 277.088 221.178 277.088C218.789 277.088 216.698 277.472 214.906 278.24C213.199 278.923 212.346 279.648 212.346 280.416C212.346 281.184 212.858 282.08 213.882 283.104C214.565 283.872 215.077 284.555 215.418 285.152C215.759 285.749 215.93 286.56 215.93 287.584C215.93 289.717 215.29 291.424 214.01 292.704C212.73 293.899 211.023 294.496 208.89 294.496C206.671 294.496 204.879 293.813 203.514 292.448C202.149 291.083 201.466 289.291 201.466 287.072C201.466 284.256 202.49 281.611 204.538 279.136C206.671 276.661 209.701 274.699 213.626 273.248C217.637 271.712 222.33 270.944 227.706 270.944C234.533 270.944 239.525 272.352 242.682 275.168C245.925 277.984 247.546 282.848 247.546 289.76V318.176C247.546 321.504 247.887 323.808 248.57 325.088C249.338 326.283 250.533 326.88 252.154 326.88C253.007 326.88 253.775 326.752 254.458 326.496C255.141 326.155 255.567 325.941 255.738 325.856L257.018 329.312ZM212.474 316C212.474 321.376 215.631 324.064 221.946 324.064C225.445 324.064 229.157 322.485 233.082 319.328V300.64C225.999 302.176 220.794 304.181 217.466 306.656C214.138 309.045 212.474 312.16 212.474 316ZM287.19 333.408C284.886 333.408 282.966 333.195 281.43 332.768C279.979 332.427 278.23 331.915 276.182 331.232C274.219 330.379 272.598 329.952 271.318 329.952C270.294 329.952 269.483 330.165 268.886 330.592C268.374 330.933 267.862 331.531 267.35 332.384H264.918L263.766 311.264H266.966C268.587 316.384 271.147 320.523 274.646 323.68C278.23 326.837 282.155 328.416 286.422 328.416C289.494 328.416 291.883 327.605 293.59 325.984C295.297 324.277 296.15 322.016 296.15 319.2C296.15 317.408 295.766 315.957 294.998 314.848C294.23 313.653 293.078 312.587 291.542 311.648C290.006 310.709 287.489 309.387 283.99 307.68L281.43 306.4C275.542 303.499 271.446 300.811 269.142 298.336C266.923 295.776 265.814 292.491 265.814 288.48C265.814 282.763 267.691 278.368 271.446 275.296C275.201 272.139 280.321 270.56 286.806 270.56C290.305 270.56 293.633 271.115 296.79 272.224C298.667 272.736 299.947 272.992 300.63 272.992C301.569 272.992 302.209 272.821 302.55 272.48C302.891 272.139 303.105 271.797 303.19 271.456C303.361 271.029 303.446 270.773 303.446 270.688H306.134L307.158 289.504H303.958C302.934 285.408 300.929 282.08 297.942 279.52C295.041 276.96 291.713 275.68 287.958 275.68C285.313 275.68 283.094 276.32 281.302 277.6C279.595 278.88 278.742 280.587 278.742 282.72C278.742 286.56 281.643 289.803 287.446 292.448L291.414 294.24C295.51 296.117 298.795 297.867 301.27 299.488C303.745 301.109 305.707 303.115 307.158 305.504C308.609 307.808 309.334 310.667 309.334 314.08C309.334 319.883 307.286 324.576 303.19 328.16C299.179 331.659 293.846 333.408 287.19 333.408ZM379.78 321.376C379.78 323.168 379.951 324.533 380.292 325.472C380.719 326.325 381.529 326.923 382.724 327.264C383.919 327.605 385.753 327.776 388.228 327.776V332H357.636V327.776C359.855 327.776 361.476 327.605 362.5 327.264C363.524 326.923 364.207 326.368 364.548 325.6C364.889 324.832 365.06 323.637 365.06 322.016V291.296C365.06 287.285 364.079 284.213 362.116 282.08C360.239 279.947 357.465 278.88 353.796 278.88C348.42 278.88 344.068 281.141 340.74 285.664V322.016C340.74 323.637 340.868 324.832 341.124 325.6C341.465 326.368 342.105 326.923 343.044 327.264C344.068 327.605 345.689 327.776 347.908 327.776V332H317.7V327.776C320.26 327.776 322.095 327.605 323.204 327.264C324.313 326.923 325.039 326.325 325.38 325.472C325.721 324.619 325.892 323.253 325.892 321.376V256.864C325.892 254.56 325.636 253.024 325.124 252.256C324.612 251.403 323.673 250.976 322.308 250.976H318.468V246.624L337.028 243.68H340.74V279.392H340.868C344.111 276.576 347.609 274.4 351.364 272.864C355.119 271.328 358.873 270.56 362.628 270.56C368.004 270.56 372.185 272.224 375.172 275.552C378.244 278.795 379.78 283.403 379.78 289.376V321.376ZM433.306 270.56C440.73 270.56 446.447 273.077 450.458 278.112C454.469 283.061 456.474 290.443 456.474 300.256C456.474 311.435 453.871 319.755 448.666 325.216C443.546 330.677 436.335 333.408 427.034 333.408C423.194 333.408 419.866 333.024 417.05 332.256C414.234 331.488 410.863 330.293 406.938 328.672H406.81L403.994 332H399.13V257.248C399.13 255.285 399.002 253.877 398.746 253.024C398.49 252.171 397.978 251.616 397.21 251.36C396.527 251.019 395.375 250.848 393.754 250.848H391.45V246.496L410.266 243.68H413.85V277.344H413.978C416.282 275.381 419.098 273.76 422.426 272.48C425.839 271.2 429.466 270.56 433.306 270.56ZM424.986 328.288C435.482 328.288 440.73 320.096 440.73 303.712C440.73 295.52 439.407 289.333 436.762 285.152C434.202 280.971 430.405 278.88 425.37 278.88C423.407 278.88 421.615 279.264 419.994 280.032C418.373 280.715 416.325 281.995 413.85 283.872V324.192C416.922 326.923 420.634 328.288 424.986 328.288ZM497.834 333.28C487.594 333.28 480.042 330.763 475.178 325.728C470.399 320.693 468.01 312.8 468.01 302.048C468.01 291.296 470.442 283.36 475.306 278.24C480.17 273.035 487.765 270.432 498.09 270.432C508.245 270.432 515.711 272.992 520.49 278.112C525.269 283.147 527.658 291.04 527.658 301.792C527.658 312.629 525.226 320.608 520.362 325.728C515.583 330.763 508.074 333.28 497.834 333.28ZM497.834 328.16C502.783 328.16 506.367 326.069 508.586 321.888C510.805 317.707 511.914 311.264 511.914 302.56C511.914 293.259 510.762 286.432 508.458 282.08C506.154 277.728 502.57 275.552 497.706 275.552C492.842 275.552 489.258 277.685 486.954 281.952C484.735 286.133 483.626 292.789 483.626 301.92C483.626 311.051 484.735 317.707 486.954 321.888C489.258 326.069 492.885 328.16 497.834 328.16ZM596.893 329.312C595.016 330.421 592.968 331.36 590.749 332.128C588.616 332.896 585.928 333.28 582.685 333.28C579.186 333.28 576.669 332.725 575.133 331.616C573.682 330.507 572.957 328.203 572.957 324.704C570.056 327.264 567.069 329.355 563.997 330.976C560.925 332.512 557.512 333.28 553.757 333.28C549.149 333.28 545.352 332.171 542.365 329.952C539.378 327.733 537.885 324.576 537.885 320.48C537.885 314.677 540.957 309.6 547.101 305.248C553.33 300.811 561.949 297.611 572.957 295.648V287.84C572.872 284.256 571.933 281.568 570.141 279.776C568.434 277.984 565.405 277.088 561.053 277.088C558.664 277.088 556.573 277.472 554.781 278.24C553.074 278.923 552.221 279.648 552.221 280.416C552.221 281.184 552.733 282.08 553.757 283.104C554.44 283.872 554.952 284.555 555.293 285.152C555.634 285.749 555.805 286.56 555.805 287.584C555.805 289.717 555.165 291.424 553.885 292.704C552.605 293.899 550.898 294.496 548.765 294.496C546.546 294.496 544.754 293.813 543.389 292.448C542.024 291.083 541.341 289.291 541.341 287.072C541.341 284.256 542.365 281.611 544.413 279.136C546.546 276.661 549.576 274.699 553.501 273.248C557.512 271.712 562.205 270.944 567.581 270.944C574.408 270.944 579.4 272.352 582.557 275.168C585.8 277.984 587.421 282.848 587.421 289.76V318.176C587.421 321.504 587.762 323.808 588.445 325.088C589.213 326.283 590.408 326.88 592.029 326.88C592.882 326.88 593.65 326.752 594.333 326.496C595.016 326.155 595.442 325.941 595.613 325.856L596.893 329.312ZM552.349 316C552.349 321.376 555.506 324.064 561.821 324.064C565.32 324.064 569.032 322.485 572.957 319.328V300.64C565.874 302.176 560.669 304.181 557.341 306.656C554.013 309.045 552.349 312.16 552.349 316ZM640.761 270.432C644.43 270.432 647.118 271.499 648.825 273.632C650.617 275.68 651.513 278.197 651.513 281.184C651.513 284 650.788 286.219 649.337 287.84C647.886 289.376 645.838 290.144 643.193 290.144C640.889 290.144 639.054 289.547 637.689 288.352C636.409 287.157 635.769 285.493 635.769 283.36C635.769 282.08 635.94 281.056 636.281 280.288C636.708 279.52 637.22 278.795 637.817 278.112C638.5 277.429 638.841 276.96 638.841 276.704C638.841 276.363 638.713 276.064 638.457 275.808C638.201 275.552 637.774 275.424 637.177 275.424C635.641 275.424 633.934 276.405 632.057 278.368C630.18 280.331 628.558 282.976 627.193 286.304C625.828 289.547 625.145 293.045 625.145 296.8V321.376C625.145 323.253 625.358 324.619 625.785 325.472C626.297 326.325 627.278 326.923 628.729 327.264C630.18 327.605 632.526 327.776 635.769 327.776V332H601.977V327.776C604.537 327.776 606.372 327.605 607.481 327.264C608.59 326.837 609.316 326.197 609.657 325.344C609.998 324.491 610.169 323.168 610.169 321.376V284.384C610.169 282.08 609.913 280.544 609.401 279.776C608.889 278.923 607.95 278.496 606.585 278.496H602.745V274.144L621.177 271.2H624.761V282.336H625.017C628.772 274.4 634.02 270.432 640.761 270.432ZM721.671 327.776V332H700.039L699.271 326.496C696.54 328.459 693.426 330.123 689.927 331.488C686.428 332.768 682.844 333.408 679.175 333.408C671.836 333.408 666.162 330.763 662.151 325.472C658.14 320.181 656.135 312.757 656.135 303.2C656.135 292.277 658.738 284.128 663.943 278.752C669.234 273.291 676.7 270.56 686.343 270.56C688.818 270.56 690.908 270.731 692.615 271.072C694.322 271.413 696.327 271.925 698.631 272.608H698.759V256.864C698.759 254.56 698.503 252.981 697.991 252.128C697.564 251.275 696.583 250.848 695.047 250.848H691.207V246.752L709.767 243.68H713.479V321.376C713.479 323.936 713.991 325.643 715.015 326.496C716.039 327.349 717.788 327.776 720.263 327.776H721.671ZM671.879 300.256C671.879 316.811 676.999 325.088 687.239 325.088C689.202 325.088 690.908 324.747 692.359 324.064C693.895 323.381 696.028 322.059 698.759 320.096V279.008C695.687 276.789 692.06 275.68 687.879 275.68C682.588 275.68 678.578 277.685 675.847 281.696C673.202 285.621 671.879 291.808 671.879 300.256ZM759.257 327.776C762.414 327.776 764.676 327.605 766.041 327.264C767.406 326.837 768.302 326.155 768.729 325.216C769.156 324.277 769.369 322.741 769.369 320.608V259.04C769.369 256.821 769.156 255.243 768.729 254.304C768.302 253.365 767.406 252.725 766.041 252.384C764.676 251.957 762.414 251.744 759.257 251.744V247.52H821.465V268.768H818.265C817.156 264.416 815.961 261.131 814.681 258.912C813.486 256.693 811.694 255.072 809.305 254.048C807.001 253.024 803.673 252.512 799.321 252.512H789.849C787.886 252.512 786.564 252.811 785.881 253.408C785.284 254.005 784.985 255.157 784.985 256.864V287.072H799.065C802.137 287.072 804.398 286.773 805.849 286.176C807.385 285.493 808.494 284.427 809.177 282.976C809.86 281.525 810.5 279.264 811.097 276.192H814.169V303.456H811.097C810.5 300.384 809.86 298.165 809.177 296.8C808.494 295.349 807.385 294.325 805.849 293.728C804.398 293.045 802.137 292.704 799.065 292.704H784.985V320.48C784.985 322.699 785.241 324.277 785.753 325.216C786.265 326.155 787.332 326.837 788.953 327.264C790.574 327.605 793.262 327.776 797.017 327.776V332H759.257V327.776ZM855.709 333.28C845.469 333.28 837.917 330.763 833.053 325.728C828.274 320.693 825.885 312.8 825.885 302.048C825.885 291.296 828.317 283.36 833.181 278.24C838.045 273.035 845.64 270.432 855.965 270.432C866.12 270.432 873.586 272.992 878.365 278.112C883.144 283.147 885.533 291.04 885.533 301.792C885.533 312.629 883.101 320.608 878.237 325.728C873.458 330.763 865.949 333.28 855.709 333.28ZM855.709 328.16C860.658 328.16 864.242 326.069 866.461 321.888C868.68 317.707 869.789 311.264 869.789 302.56C869.789 293.259 868.637 286.432 866.333 282.08C864.029 277.728 860.445 275.552 855.581 275.552C850.717 275.552 847.133 277.685 844.829 281.952C842.61 286.133 841.501 292.789 841.501 301.92C841.501 311.051 842.61 317.707 844.829 321.888C847.133 326.069 850.76 328.16 855.709 328.16ZM934.386 270.432C938.055 270.432 940.743 271.499 942.45 273.632C944.242 275.68 945.138 278.197 945.138 281.184C945.138 284 944.413 286.219 942.962 287.84C941.511 289.376 939.463 290.144 936.818 290.144C934.514 290.144 932.679 289.547 931.314 288.352C930.034 287.157 929.394 285.493 929.394 283.36C929.394 282.08 929.565 281.056 929.906 280.288C930.333 279.52 930.845 278.795 931.442 278.112C932.125 277.429 932.466 276.96 932.466 276.704C932.466 276.363 932.338 276.064 932.082 275.808C931.826 275.552 931.399 275.424 930.802 275.424C929.266 275.424 927.559 276.405 925.682 278.368C923.805 280.331 922.183 282.976 920.818 286.304C919.453 289.547 918.77 293.045 918.77 296.8V321.376C918.77 323.253 918.983 324.619 919.41 325.472C919.922 326.325 920.903 326.923 922.354 327.264C923.805 327.605 926.151 327.776 929.394 327.776V332H895.602V327.776C898.162 327.776 899.997 327.605 901.106 327.264C902.215 326.837 902.941 326.197 903.282 325.344C903.623 324.491 903.794 323.168 903.794 321.376V284.384C903.794 282.08 903.538 280.544 903.026 279.776C902.514 278.923 901.575 278.496 900.21 278.496H896.37V274.144L914.802 271.2H918.386V282.336H918.642C922.397 274.4 927.645 270.432 934.386 270.432ZM144.36 498.536C131.219 498.536 121.021 494.824 113.768 487.4C106.6 479.976 103.016 469.523 103.016 456.04C103.016 446.909 104.68 438.973 108.008 432.232C111.421 425.405 116.243 420.157 122.472 416.488C128.787 412.819 136.253 410.984 144.872 410.984C148.712 410.984 151.869 411.325 154.344 412.008C156.819 412.605 159.379 413.416 162.024 414.44C162.451 414.611 163.133 414.867 164.072 415.208C165.096 415.549 165.992 415.72 166.76 415.72C168.125 415.72 169.064 415.123 169.576 413.928L170.216 412.52H173.416L174.696 436.968H171.496C170.387 431.336 167.869 426.472 163.944 422.376C160.019 418.195 154.515 416.104 147.432 416.104C137.277 416.104 130.237 420.157 126.312 428.264C122.472 436.285 120.552 445.075 120.552 454.632C120.552 461.459 121.491 467.816 123.368 473.704C125.331 479.507 128.275 484.243 132.2 487.912C136.211 491.496 141.16 493.288 147.048 493.288C149.267 493.288 151.528 493.032 153.832 492.52C156.136 492.008 158.141 491.368 159.848 490.6V469.992C159.848 468.029 159.635 466.536 159.208 465.512C158.781 464.488 157.928 463.763 156.648 463.336C155.368 462.824 153.448 462.568 150.888 462.568H148.584V458.6H183.016V462.568H180.584C178.451 462.568 177.043 463.123 176.36 464.232C175.763 465.256 175.464 467.176 175.464 469.992V497H172.136C171.539 494.44 170.131 493.16 167.912 493.16C167.144 493.16 166.333 493.331 165.48 493.672C164.627 493.928 163.731 494.269 162.792 494.696C160.147 495.891 157.501 496.829 154.856 497.512C152.211 498.195 148.712 498.536 144.36 498.536ZM220.459 498.28C210.219 498.28 202.667 495.763 197.803 490.728C193.024 485.693 190.635 477.8 190.635 467.048C190.635 456.296 193.067 448.36 197.931 443.24C202.795 438.035 210.39 435.432 220.715 435.432C230.87 435.432 238.336 437.992 243.115 443.112C247.894 448.147 250.283 456.04 250.283 466.792C250.283 477.629 247.851 485.608 242.987 490.728C238.208 495.763 230.699 498.28 220.459 498.28ZM220.459 493.16C225.408 493.16 228.992 491.069 231.211 486.888C233.43 482.707 234.539 476.264 234.539 467.56C234.539 458.259 233.387 451.432 231.083 447.08C228.779 442.728 225.195 440.552 220.331 440.552C215.467 440.552 211.883 442.685 209.579 446.952C207.36 451.133 206.251 457.789 206.251 466.92C206.251 476.051 207.36 482.707 209.579 486.888C211.883 491.069 215.51 493.16 220.459 493.16ZM291.584 498.28C281.344 498.28 273.792 495.763 268.928 490.728C264.149 485.693 261.76 477.8 261.76 467.048C261.76 456.296 264.192 448.36 269.056 443.24C273.92 438.035 281.515 435.432 291.84 435.432C301.995 435.432 309.461 437.992 314.24 443.112C319.019 448.147 321.408 456.04 321.408 466.792C321.408 477.629 318.976 485.608 314.112 490.728C309.333 495.763 301.824 498.28 291.584 498.28ZM291.584 493.16C296.533 493.16 300.117 491.069 302.336 486.888C304.555 482.707 305.664 476.264 305.664 467.56C305.664 458.259 304.512 451.432 302.208 447.08C299.904 442.728 296.32 440.552 291.456 440.552C286.592 440.552 283.008 442.685 280.704 446.952C278.485 451.133 277.376 457.789 277.376 466.92C277.376 476.051 278.485 482.707 280.704 486.888C283.008 491.069 286.635 493.16 291.584 493.16ZM398.421 492.776V497H376.789L376.021 491.496C373.29 493.459 370.176 495.123 366.677 496.488C363.178 497.768 359.594 498.408 355.925 498.408C348.586 498.408 342.912 495.763 338.901 490.472C334.89 485.181 332.885 477.757 332.885 468.2C332.885 457.277 335.488 449.128 340.693 443.752C345.984 438.291 353.45 435.56 363.093 435.56C365.568 435.56 367.658 435.731 369.365 436.072C371.072 436.413 373.077 436.925 375.381 437.608H375.509V421.864C375.509 419.56 375.253 417.981 374.741 417.128C374.314 416.275 373.333 415.848 371.797 415.848H367.957V411.752L386.517 408.68H390.229V486.376C390.229 488.936 390.741 490.643 391.765 491.496C392.789 492.349 394.538 492.776 397.013 492.776H398.421ZM348.629 465.256C348.629 481.811 353.749 490.088 363.989 490.088C365.952 490.088 367.658 489.747 369.109 489.064C370.645 488.381 372.778 487.059 375.509 485.096V444.008C372.437 441.789 368.81 440.68 364.629 440.68C359.338 440.68 355.328 442.685 352.597 446.696C349.952 450.621 348.629 456.808 348.629 465.256ZM429.94 498.408C427.636 498.408 425.716 498.195 424.18 497.768C422.729 497.427 420.98 496.915 418.932 496.232C416.969 495.379 415.348 494.952 414.068 494.952C413.044 494.952 412.233 495.165 411.636 495.592C411.124 495.933 410.612 496.531 410.1 497.384H407.668L406.516 476.264H409.716C411.337 481.384 413.897 485.523 417.396 488.68C420.98 491.837 424.905 493.416 429.172 493.416C432.244 493.416 434.633 492.605 436.34 490.984C438.047 489.277 438.9 487.016 438.9 484.2C438.9 482.408 438.516 480.957 437.748 479.848C436.98 478.653 435.828 477.587 434.292 476.648C432.756 475.709 430.239 474.387 426.74 472.68L424.18 471.4C418.292 468.499 414.196 465.811 411.892 463.336C409.673 460.776 408.564 457.491 408.564 453.48C408.564 447.763 410.441 443.368 414.196 440.296C417.951 437.139 423.071 435.56 429.556 435.56C433.055 435.56 436.383 436.115 439.54 437.224C441.417 437.736 442.697 437.992 443.38 437.992C444.319 437.992 444.959 437.821 445.3 437.48C445.641 437.139 445.855 436.797 445.94 436.456C446.111 436.029 446.196 435.773 446.196 435.688H448.884L449.908 454.504H446.708C445.684 450.408 443.679 447.08 440.692 444.52C437.791 441.96 434.463 440.68 430.708 440.68C428.063 440.68 425.844 441.32 424.052 442.6C422.345 443.88 421.492 445.587 421.492 447.72C421.492 451.56 424.393 454.803 430.196 457.448L434.164 459.24C438.26 461.117 441.545 462.867 444.02 464.488C446.495 466.109 448.457 468.115 449.908 470.504C451.359 472.808 452.084 475.667 452.084 479.08C452.084 484.883 450.036 489.576 445.94 493.16C441.929 496.659 436.596 498.408 429.94 498.408ZM102.632 657.776C105.789 657.776 108.051 657.605 109.416 657.264C110.781 656.837 111.677 656.155 112.104 655.216C112.531 654.277 112.744 652.741 112.744 650.608V589.04C112.744 586.821 112.531 585.243 112.104 584.304C111.677 583.28 110.781 582.597 109.416 582.256C108.051 581.915 105.789 581.744 102.632 581.744V577.52H143.08C157.501 577.691 168.296 581.104 175.464 587.76C182.632 594.331 186.216 604.613 186.216 618.608C186.216 633.883 182.248 644.933 174.312 651.76C166.461 658.587 154.643 662 138.856 662H102.632V657.776ZM139.496 657.008C149.565 657.008 156.904 653.936 161.512 647.792C166.205 641.648 168.552 632.048 168.552 618.992C168.552 594.672 159.123 582.512 140.264 582.512C135.571 582.512 132.413 582.811 130.792 583.408C129.171 584.005 128.36 585.243 128.36 587.12V649.712C128.36 652.613 129.085 654.576 130.536 655.6C132.072 656.539 135.059 657.008 139.496 657.008ZM211.194 592.624C208.719 592.624 206.714 591.856 205.178 590.32C203.642 588.699 202.874 586.693 202.874 584.304C202.874 581.915 203.642 579.909 205.178 578.288C206.714 576.667 208.719 575.856 211.194 575.856C213.754 575.856 215.802 576.667 217.338 578.288C218.874 579.909 219.642 581.915 219.642 584.304C219.642 586.693 218.831 588.699 217.21 590.32C215.589 591.856 213.583 592.624 211.194 592.624ZM195.962 657.776C198.522 657.776 200.357 657.605 201.466 657.264C202.575 656.837 203.301 656.197 203.642 655.344C203.983 654.491 204.154 653.168 204.154 651.376V614.384C204.154 611.995 203.898 610.416 203.386 609.648C202.959 608.88 202.021 608.496 200.57 608.496H196.73V604.144L215.546 601.2H219.13V651.376C219.13 653.253 219.301 654.619 219.642 655.472C219.983 656.325 220.709 656.923 221.818 657.264C222.927 657.605 224.762 657.776 227.322 657.776V662H195.962V657.776ZM260.69 663.408C258.386 663.408 256.466 663.195 254.93 662.768C253.479 662.427 251.73 661.915 249.682 661.232C247.719 660.379 246.098 659.952 244.818 659.952C243.794 659.952 242.983 660.165 242.386 660.592C241.874 660.933 241.362 661.531 240.85 662.384H238.418L237.266 641.264H240.466C242.087 646.384 244.647 650.523 248.146 653.68C251.73 656.837 255.655 658.416 259.922 658.416C262.994 658.416 265.383 657.605 267.09 655.984C268.797 654.277 269.65 652.016 269.65 649.2C269.65 647.408 269.266 645.957 268.498 644.848C267.73 643.653 266.578 642.587 265.042 641.648C263.506 640.709 260.989 639.387 257.49 637.68L254.93 636.4C249.042 633.499 244.946 630.811 242.642 628.336C240.423 625.776 239.314 622.491 239.314 618.48C239.314 612.763 241.191 608.368 244.946 605.296C248.701 602.139 253.821 600.56 260.306 600.56C263.805 600.56 267.133 601.115 270.29 602.224C272.167 602.736 273.447 602.992 274.13 602.992C275.069 602.992 275.709 602.821 276.05 602.48C276.391 602.139 276.605 601.797 276.69 601.456C276.861 601.029 276.946 600.773 276.946 600.688H279.634L280.658 619.504H277.458C276.434 615.408 274.429 612.08 271.442 609.52C268.541 606.96 265.213 605.68 261.458 605.68C258.813 605.68 256.594 606.32 254.802 607.6C253.095 608.88 252.242 610.587 252.242 612.72C252.242 616.56 255.143 619.803 260.946 622.448L264.914 624.24C269.01 626.117 272.295 627.867 274.77 629.488C277.245 631.109 279.207 633.115 280.658 635.504C282.109 637.808 282.834 640.667 282.834 644.08C282.834 649.883 280.786 654.576 276.69 658.16C272.679 661.659 267.346 663.408 260.69 663.408ZM311.68 663.408C306.987 663.408 303.317 662.128 300.672 659.568C298.027 656.923 296.704 653.211 296.704 648.432V606.96H289.152V602.736C293.589 601.371 297.131 599.024 299.776 595.696C302.421 592.283 304.512 587.632 306.048 581.744H311.424V601.84H325.12V606.96H311.424V643.952C311.424 647.792 312.149 650.651 313.6 652.528C315.051 654.405 317.312 655.344 320.384 655.344C322.688 655.344 324.821 654.917 326.784 654.064L328.192 657.264C325.035 659.312 322.304 660.848 320 661.872C317.781 662.896 315.008 663.408 311.68 663.408ZM371.636 600.432C375.305 600.432 377.993 601.499 379.7 603.632C381.492 605.68 382.388 608.197 382.388 611.184C382.388 614 381.663 616.219 380.212 617.84C378.761 619.376 376.713 620.144 374.068 620.144C371.764 620.144 369.929 619.547 368.564 618.352C367.284 617.157 366.644 615.493 366.644 613.36C366.644 612.08 366.815 611.056 367.156 610.288C367.583 609.52 368.095 608.795 368.692 608.112C369.375 607.429 369.716 606.96 369.716 606.704C369.716 606.363 369.588 606.064 369.332 605.808C369.076 605.552 368.649 605.424 368.052 605.424C366.516 605.424 364.809 606.405 362.932 608.368C361.055 610.331 359.433 612.976 358.068 616.304C356.703 619.547 356.02 623.045 356.02 626.8V651.376C356.02 653.253 356.233 654.619 356.66 655.472C357.172 656.325 358.153 656.923 359.604 657.264C361.055 657.605 363.401 657.776 366.644 657.776V662H332.852V657.776C335.412 657.776 337.247 657.605 338.356 657.264C339.465 656.837 340.191 656.197 340.532 655.344C340.873 654.491 341.044 653.168 341.044 651.376V614.384C341.044 612.08 340.788 610.544 340.276 609.776C339.764 608.923 338.825 608.496 337.46 608.496H333.62V604.144L352.052 601.2H355.636V612.336H355.892C359.647 604.4 364.895 600.432 371.636 600.432ZM402.694 592.624C400.219 592.624 398.214 591.856 396.678 590.32C395.142 588.699 394.374 586.693 394.374 584.304C394.374 581.915 395.142 579.909 396.678 578.288C398.214 576.667 400.219 575.856 402.694 575.856C405.254 575.856 407.302 576.667 408.838 578.288C410.374 579.909 411.142 581.915 411.142 584.304C411.142 586.693 410.331 588.699 408.71 590.32C407.089 591.856 405.083 592.624 402.694 592.624ZM387.462 657.776C390.022 657.776 391.857 657.605 392.966 657.264C394.075 656.837 394.801 656.197 395.142 655.344C395.483 654.491 395.654 653.168 395.654 651.376V614.384C395.654 611.995 395.398 610.416 394.886 609.648C394.459 608.88 393.521 608.496 392.07 608.496H388.23V604.144L407.046 601.2H410.63V651.376C410.63 653.253 410.801 654.619 411.142 655.472C411.483 656.325 412.209 656.923 413.318 657.264C414.427 657.605 416.262 657.776 418.822 657.776V662H387.462V657.776ZM467.806 600.56C475.23 600.56 480.947 603.077 484.958 608.112C488.969 613.061 490.974 620.443 490.974 630.256C490.974 641.435 488.371 649.755 483.166 655.216C478.046 660.677 470.835 663.408 461.534 663.408C457.694 663.408 454.366 663.024 451.55 662.256C448.734 661.488 445.363 660.293 441.438 658.672H441.31L438.494 662H433.63V587.248C433.63 585.285 433.502 583.877 433.246 583.024C432.99 582.171 432.478 581.616 431.71 581.36C431.027 581.019 429.875 580.848 428.254 580.848H425.95V576.496L444.766 573.68H448.35V607.344H448.478C450.782 605.381 453.598 603.76 456.926 602.48C460.339 601.2 463.966 600.56 467.806 600.56ZM459.486 658.288C469.982 658.288 475.23 650.096 475.23 633.712C475.23 625.52 473.907 619.333 471.262 615.152C468.702 610.971 464.905 608.88 459.87 608.88C457.907 608.88 456.115 609.264 454.494 610.032C452.873 610.715 450.825 611.995 448.35 613.872V654.192C451.422 656.923 455.134 658.288 459.486 658.288ZM561.39 651.376C561.39 653.168 561.561 654.533 561.902 655.472C562.329 656.325 563.097 656.923 564.206 657.264C565.401 657.605 567.193 657.776 569.582 657.776V662H546.926V653.168H546.798C538.862 659.995 531.395 663.408 524.398 663.408C518.937 663.408 514.755 661.872 511.854 658.8C509.038 655.728 507.63 651.248 507.63 645.36V613.616C507.63 611.227 507.374 609.648 506.862 608.88C506.35 608.112 505.326 607.728 503.79 607.728H499.95V603.504L518.638 601.2H522.35V641.648C522.35 645.915 523.289 649.243 525.166 651.632C527.129 653.936 529.902 655.088 533.486 655.088C535.705 655.088 537.966 654.405 540.27 653.04C542.659 651.589 544.75 649.925 546.542 648.048V613.616C546.542 611.227 546.286 609.648 545.774 608.88C545.347 608.112 544.366 607.728 542.83 607.728H538.99V603.504L557.678 601.2H561.39V651.376ZM597.555 663.408C592.862 663.408 589.192 662.128 586.547 659.568C583.902 656.923 582.579 653.211 582.579 648.432V606.96H575.027V602.736C579.464 601.371 583.006 599.024 585.651 595.696C588.296 592.283 590.387 587.632 591.923 581.744H597.299V601.84H610.995V606.96H597.299V643.952C597.299 647.792 598.024 650.651 599.475 652.528C600.926 654.405 603.187 655.344 606.259 655.344C608.563 655.344 610.696 654.917 612.659 654.064L614.067 657.264C610.91 659.312 608.179 660.848 605.875 661.872C603.656 662.896 600.883 663.408 597.555 663.408ZM649.959 663.28C639.719 663.28 632.167 660.763 627.303 655.728C622.524 650.693 620.135 642.8 620.135 632.048C620.135 621.296 622.567 613.36 627.431 608.24C632.295 603.035 639.89 600.432 650.215 600.432C660.37 600.432 667.836 602.992 672.615 608.112C677.394 613.147 679.783 621.04 679.783 631.792C679.783 642.629 677.351 650.608 672.487 655.728C667.708 660.763 660.199 663.28 649.959 663.28ZM649.959 658.16C654.908 658.16 658.492 656.069 660.711 651.888C662.93 647.707 664.039 641.264 664.039 632.56C664.039 623.259 662.887 616.432 660.583 612.08C658.279 607.728 654.695 605.552 649.831 605.552C644.967 605.552 641.383 607.685 639.079 611.952C636.86 616.133 635.751 622.789 635.751 631.92C635.751 641.051 636.86 647.707 639.079 651.888C641.383 656.069 645.01 658.16 649.959 658.16ZM728.636 600.432C732.305 600.432 734.993 601.499 736.7 603.632C738.492 605.68 739.388 608.197 739.388 611.184C739.388 614 738.663 616.219 737.212 617.84C735.761 619.376 733.713 620.144 731.068 620.144C728.764 620.144 726.929 619.547 725.564 618.352C724.284 617.157 723.644 615.493 723.644 613.36C723.644 612.08 723.815 611.056 724.156 610.288C724.583 609.52 725.095 608.795 725.692 608.112C726.375 607.429 726.716 606.96 726.716 606.704C726.716 606.363 726.588 606.064 726.332 605.808C726.076 605.552 725.649 605.424 725.052 605.424C723.516 605.424 721.809 606.405 719.932 608.368C718.055 610.331 716.433 612.976 715.068 616.304C713.703 619.547 713.02 623.045 713.02 626.8V651.376C713.02 653.253 713.233 654.619 713.66 655.472C714.172 656.325 715.153 656.923 716.604 657.264C718.055 657.605 720.401 657.776 723.644 657.776V662H689.852V657.776C692.412 657.776 694.247 657.605 695.356 657.264C696.465 656.837 697.191 656.197 697.532 655.344C697.873 654.491 698.044 653.168 698.044 651.376V614.384C698.044 612.08 697.788 610.544 697.276 609.776C696.764 608.923 695.825 608.496 694.46 608.496H690.62V604.144L709.052 601.2H712.636V612.336H712.892C716.647 604.4 721.895 600.432 728.636 600.432Z" fill="#CF1767"/>
</svg>
